<?xml version="1.0" encoding="UTF-8" standalone="no"?>
<!-- Created with Inkscape (http://www.inkscape.org/) -->

<svg
   xmlns:dc="http://purl.org/dc/elements/1.1/"
   xmlns:cc="http://creativecommons.org/ns#"
   xmlns:rdf="http://www.w3.org/1999/02/22-rdf-syntax-ns#"
   xmlns:svg="http://www.w3.org/2000/svg"
   xmlns="http://www.w3.org/2000/svg"
   xmlns:sodipodi="http://sodipodi.sourceforge.net/DTD/sodipodi-0.dtd"
   xmlns:inkscape="http://www.inkscape.org/namespaces/inkscape"
   id="svg3336"
   version="1.1"
   inkscape:version="0.91 r13725"
   xml:space="preserve"
   width="468.36615"
   height="391.08383"
   viewBox="0 0 468.36615 391.08383"
   sodipodi:docname="osgi.svg"><metadata
     id="metadata3342"><rdf:RDF><cc:Work
         rdf:about=""><dc:format>image/svg+xml</dc:format><dc:type
           rdf:resource="http://purl.org/dc/dcmitype/StillImage" /><dc:title></dc:title></cc:Work></rdf:RDF></metadata><defs
     id="defs3340"><marker
       inkscape:stockid="TriangleOutM"
       orient="auto"
       refY="0"
       refX="0"
       id="marker5397"
       style="overflow:visible"
       inkscape:isstock="true"><path
         id="path5399"
         d="m 5.77,0 -8.65,5 0,-10 8.65,5 z"
         style="fill:#000000;fill-opacity:1;fill-rule:evenodd;stroke:#000000;stroke-width:1pt;stroke-opacity:1"
         transform="scale(0.4,0.4)"
         inkscape:connector-curvature="0" /></marker><marker
       inkscape:stockid="Arrow2Lend"
       orient="auto"
       refY="0"
       refX="0"
       id="Arrow2Lend"
       style="overflow:visible"
       inkscape:isstock="true"><path
         id="path4914"
         style="fill:#000000;fill-opacity:1;fill-rule:evenodd;stroke:#000000;stroke-width:0.625;stroke-linejoin:round;stroke-opacity:1"
         d="M 8.7185878,4.0337352 -2.2072895,0.01601326 8.7185884,-4.0017078 c -1.7454984,2.3720609 -1.7354408,5.6174519 -6e-7,8.035443 z"
         transform="matrix(-1.1,0,0,-1.1,-1.1,0)"
         inkscape:connector-curvature="0" /></marker><marker
       inkscape:stockid="TriangleOutM"
       orient="auto"
       refY="0"
       refX="0"
       id="TriangleOutM"
       style="overflow:visible"
       inkscape:isstock="true"><path
         id="path5038"
         d="m 5.77,0 -8.65,5 0,-10 8.65,5 z"
         style="fill:#000000;fill-opacity:1;fill-rule:evenodd;stroke:#000000;stroke-width:1pt;stroke-opacity:1"
         transform="scale(0.4,0.4)"
         inkscape:connector-curvature="0" /></marker><marker
       inkscape:stockid="Arrow1Lend"
       orient="auto"
       refY="0"
       refX="0"
       id="Arrow1Lend"
       style="overflow:visible"
       inkscape:isstock="true"><path
         id="path4896"
         d="M 0,0 5,-5 -12.5,0 5,5 0,0 Z"
         style="fill:#000000;fill-opacity:1;fill-rule:evenodd;stroke:#000000;stroke-width:1pt;stroke-opacity:1"
         transform="matrix(-0.8,0,0,-0.8,-10,0)"
         inkscape:connector-curvature="0" /></marker><clipPath
       clipPathUnits="userSpaceOnUse"
       id="clipPath3356"><path
         d="M 0,0 871,0 871,217 0,217 0,0 Z"
         id="path3358"
         inkscape:connector-curvature="0" /></clipPath></defs><sodipodi:namedview
     pagecolor="#ffffff"
     bordercolor="#666666"
     borderopacity="1"
     objecttolerance="10"
     gridtolerance="10"
     guidetolerance="10"
     inkscape:pageopacity="0"
     inkscape:pageshadow="2"
     inkscape:window-width="1366"
     inkscape:window-height="706"
     id="namedview3338"
     showgrid="false"
     fit-margin-top="0"
     fit-margin-left="0"
     fit-margin-right="0"
     fit-margin-bottom="0"
     inkscape:zoom="1.1122847"
     inkscape:cx="331.91384"
     inkscape:cy="163.18282"
     inkscape:window-x="-8"
     inkscape:window-y="-8"
     inkscape:window-maximized="1"
     inkscape:current-layer="g3344" /><g
     id="g3344"
     inkscape:groupmode="layer"
     inkscape:label="osgi"
     transform="matrix(1.25,0,0,-1.25,-226.25555,272.90166)"><g
       id="g3346" /><path
       inkscape:connector-curvature="0"
       id="path3364"
       style="fill:#ffd1aa;fill-opacity:1;fill-rule:nonzero;stroke:#000000;stroke-width:1;stroke-linecap:butt;stroke-linejoin:round;stroke-miterlimit:10;stroke-dasharray:none;stroke-opacity:1"
       d="m 196,147.875 336,0 0,-129 -336,0 0,129 z" /><text
       id="text3366"
       style="font-variant:normal;font-size:14.00024414px;font-family:NimbusRomNo9L;-inkscape-font-specification:NimbusRomNo9L-Regu;writing-mode:lr-tb;fill:#000000;fill-opacity:1;fill-rule:nonzero;stroke:none"
       transform="scale(1,-1)"
       x="221"
       y="-132.67578"><tspan
         id="tspan3368"
         sodipodi:role="line"
         y="-132.67578"
         x="221 228.50414 232.99821 239.74632 246.50844 250.24651 255.4966 259.24866 265.9968 272.75891 279.50702 283.25909 290.0072 296.75531 300.50739 308.01151 314.75964 320.75174 326.00183 332.02191 335.77399 340.26807 344.02014 348.52823 354.52032 359.77042 366.51855 370.2706 377.01874 380.77078 387.51892 394.28101 398.0191 405.52319 412.27133 422.02951 429.53363 433.2717 440.03381 446.02594 452.77405 458.78015 465.52826 472.27637 478.28247 485.03061 491.03671 494.78876 500.78088">Provisionning Phase - resolving SvNF dependencies</tspan></text>
<path
       inkscape:connector-curvature="0"
       id="path3376"
       style="fill:none;stroke:#000000;stroke-width:0.63376105;stroke-linecap:butt;stroke-linejoin:round;stroke-miterlimit:10;stroke-dasharray:none;stroke-opacity:1"
       d="m 452.71118,218.00445 102.66929,0 0,-67.17867 -102.66929,0 0,67.17867 z" /><g
       id="g5357"
       transform="translate(278.346,125.86705)"><path
         d="m 165.25,61.875 c 0,-14.77 -32.348,-26.742 -72.25,-26.742 -39.902,0 -72.25,11.972 -72.25,26.742 0,14.77 32.348,26.742 72.25,26.742 39.902,0 72.25,-11.972 72.25,-26.742"
         style="fill:#000000;fill-opacity:1;fill-rule:nonzero;stroke:#000000;stroke-width:1;stroke-linecap:butt;stroke-linejoin:round;stroke-miterlimit:10;stroke-dasharray:none;stroke-opacity:1"
         id="path3378"
         inkscape:connector-curvature="0" /><text
         y="-65.675781"
         x="53.5"
         transform="scale(1,-1)"
         style="font-variant:normal;font-size:14.00024414px;font-family:NimbusRomNo9L;-inkscape-font-specification:NimbusRomNo9L-Regu;writing-mode:lr-tb;fill:#ffffff;fill-opacity:1;fill-rule:nonzero;stroke:none"
         id="text3380"><tspan
           x="53.5 63.244171 69.250275 75.99839 79.750458 86.498573 93.246689 96.998756 104.50288 111.25101 121.00918 128.4993"
           y="-65.675781"
           sodipodi:role="line"
           id="tspan3382">Deploy SvNF </tspan><tspan
           x="49.999996 56.748112 63.496231 67.248299 71.000359 77.748474 83.754585 87.506653 97.250824 103.25693 107.00899 113.0011 122.75926 128.75137"
           y="-50.675777"
           sodipodi:role="line"
           id="tspan3384">on the Gateway</tspan></text>
</g><path
       inkscape:connector-curvature="0"
       id="path3386"
       style="fill:#f3dbdb;fill-opacity:1;fill-rule:nonzero;stroke:#000000;stroke-width:1;stroke-linecap:butt;stroke-linejoin:round;stroke-miterlimit:10;stroke-dasharray:none;stroke-opacity:1"
       d="m 266,79.875 -58,0 -4,-4 0,-32 58,0 4,4 0,32 z" /><path
       inkscape:connector-curvature="0"
       id="path3388"
       style="fill:none;stroke:#000000;stroke-width:1;stroke-linecap:butt;stroke-linejoin:round;stroke-miterlimit:10;stroke-dasharray:none;stroke-opacity:1"
       d="m 262,75.875 -58,0" /><path
       inkscape:connector-curvature="0"
       id="path3390"
       style="fill:none;stroke:#000000;stroke-width:1;stroke-linecap:butt;stroke-linejoin:round;stroke-miterlimit:10;stroke-dasharray:none;stroke-opacity:1"
       d="m 262,75.875 0,-32" /><path
       inkscape:connector-curvature="0"
       id="path3392"
       style="fill:none;stroke:#000000;stroke-width:1;stroke-linecap:butt;stroke-linejoin:round;stroke-miterlimit:10;stroke-dasharray:none;stroke-opacity:1"
       d="m 262,75.875 4,4" /><text
       id="text3394"
       style="font-variant:normal;font-size:14.00024414px;font-family:NimbusRomNo9L;-inkscape-font-specification:NimbusRomNo9L-Regu;writing-mode:lr-tb;fill:#000000;fill-opacity:1;fill-rule:nonzero;stroke:none"
       transform="scale(1,-1)"
       x="212"
       y="-58.175781"><tspan
         id="tspan3396"
         sodipodi:role="line"
         y="-58.175781"
         x="212 215.75206 222.50018 227.75027 231.50233 237.50844 241.24651 244.99857 251.00468">installed</tspan></text>
<path
       inkscape:connector-curvature="0"
       id="path3402"
       style="fill:#f3dbdb;fill-opacity:1;fill-rule:nonzero;stroke:#000000;stroke-width:1;stroke-linecap:butt;stroke-linejoin:round;stroke-miterlimit:10;stroke-dasharray:none;stroke-opacity:1"
       d="m 524,116.875 -72,0 -4,-4 0,-32 72,0 4,4 0,32 z" /><path
       inkscape:connector-curvature="0"
       id="path3404"
       style="fill:none;stroke:#000000;stroke-width:1;stroke-linecap:butt;stroke-linejoin:round;stroke-miterlimit:10;stroke-dasharray:none;stroke-opacity:1"
       d="m 520,112.875 -72,0" /><path
       inkscape:connector-curvature="0"
       id="path3406"
       style="fill:none;stroke:#000000;stroke-width:1;stroke-linecap:butt;stroke-linejoin:round;stroke-miterlimit:10;stroke-dasharray:none;stroke-opacity:1"
       d="m 520,112.875 0,-32" /><path
       inkscape:connector-curvature="0"
       id="path3408"
       style="fill:none;stroke:#000000;stroke-width:1;stroke-linecap:butt;stroke-linejoin:round;stroke-miterlimit:10;stroke-dasharray:none;stroke-opacity:1"
       d="m 520,112.875 4,4" /><text
       id="text3410"
       style="font-variant:normal;font-size:14.00024414px;font-family:NimbusRomNo9L;-inkscape-font-specification:NimbusRomNo9L-Regu;writing-mode:lr-tb;fill:#000000;fill-opacity:1;fill-rule:nonzero;stroke:none"
       transform="scale(1,-1)"
       x="456"
       y="-95.175781"><tspan
         id="tspan3412"
         sodipodi:role="line"
         y="-95.175781"
         x="456 462.74811 469.49625 473.24829 479.99643 485.24652 488.99857 495.00467 498.75674 502.50882 508.50092">uninstalled</tspan></text>
<path
       inkscape:connector-curvature="0"
       id="path3414"
       style="fill:none;stroke:#000000;stroke-width:1;stroke-linecap:butt;stroke-linejoin:round;stroke-miterlimit:10;stroke-dasharray:none;stroke-opacity:1"
       d="m 266.004,79.266 c 18.387,9.636 42.781,20.648 65.996,25.609 34.918,7.461 75.312,5.441 105.824,1.836" /><path
       inkscape:connector-curvature="0"
       id="path3416"
       style="fill:#000000;fill-opacity:1;fill-rule:nonzero;stroke:#000000;stroke-width:1;stroke-linecap:butt;stroke-linejoin:round;stroke-miterlimit:10;stroke-dasharray:none;stroke-opacity:1"
       d="m 438.297,110.18 9.473,-4.743 -10.364,-2.203 0.891,6.946 z" /><path
       inkscape:connector-curvature="0"
       id="path3418"
       style="fill:#f3dbdb;fill-opacity:1;fill-rule:nonzero;stroke:#000000;stroke-width:1;stroke-linecap:butt;stroke-linejoin:round;stroke-miterlimit:10;stroke-dasharray:none;stroke-opacity:1"
       d="m 394,62.875 -58,0 -4,-4 0,-32 58,0 4,4 0,32 z" /><path
       inkscape:connector-curvature="0"
       id="path3420"
       style="fill:none;stroke:#000000;stroke-width:1;stroke-linecap:butt;stroke-linejoin:round;stroke-miterlimit:10;stroke-dasharray:none;stroke-opacity:1"
       d="m 390,58.875 -58,0" /><path
       inkscape:connector-curvature="0"
       id="path3422"
       style="fill:none;stroke:#000000;stroke-width:1;stroke-linecap:butt;stroke-linejoin:round;stroke-miterlimit:10;stroke-dasharray:none;stroke-opacity:1"
       d="m 390,58.875 0,-32" /><path
       inkscape:connector-curvature="0"
       id="path3424"
       style="fill:none;stroke:#000000;stroke-width:1;stroke-linecap:butt;stroke-linejoin:round;stroke-miterlimit:10;stroke-dasharray:none;stroke-opacity:1"
       d="m 390,58.875 4,4" /><text
       id="text3426"
       style="font-variant:normal;font-size:14.00024414px;font-family:NimbusRomNo9L;-inkscape-font-specification:NimbusRomNo9L-Regu;writing-mode:lr-tb;fill:#000000;fill-opacity:1;fill-rule:nonzero;stroke:none"
       transform="scale(1,-1)"
       x="340"
       y="-41.175781"><tspan
         id="tspan3428"
         sodipodi:role="line"
         y="-41.175781"
         x="340 344.49408 350.50018 355.75027 362.49838 366.25046 372.99857 379.00467">resolved</tspan></text>
<path
       inkscape:connector-curvature="0"
       id="path3430"
       style="fill:none;stroke:#000000;stroke-width:2;stroke-linecap:butt;stroke-linejoin:round;stroke-miterlimit:10;stroke-dasharray:none;stroke-opacity:1"
       d="m 266.109,50.27 c 5.852,-1.805 12,-3.399 17.891,-4.395 12.086,-2.039 25.371,-2.762 37.5,-2.844" /><path
       inkscape:connector-curvature="0"
       id="path3432"
       style="fill:#000000;fill-opacity:1;fill-rule:nonzero;stroke:#000000;stroke-width:2;stroke-linecap:butt;stroke-linejoin:round;stroke-miterlimit:10;stroke-dasharray:none;stroke-opacity:1"
       d="m 321.777,46.531 10.028,-3.426 -9.977,-3.574 -0.051,7 z" /><text
       id="text3434"
       style="font-variant:normal;font-size:9.99975586px;font-family:NimbusRomNo9L;-inkscape-font-specification:NimbusRomNo9L-Regu;writing-mode:lr-tb;fill:#696969;fill-opacity:1;fill-rule:nonzero;stroke:none"
       transform="scale(1,-1)"
       x="284"
       y="-48.875"><tspan
         id="tspan3436"
         sodipodi:role="line"
         y="-48.875"
         x="284 286.99994 291.49982 295.24973 300.4996 303.49951 308.74939">resolve</tspan></text>
<path
       inkscape:connector-curvature="0"
       id="path3438"
       style="fill:#f3dbdb;fill-opacity:1;fill-rule:nonzero;stroke:#000000;stroke-width:1;stroke-linecap:butt;stroke-linejoin:round;stroke-miterlimit:10;stroke-dasharray:none;stroke-opacity:1"
       d="m 514.5,62.875 -53,0 -4,-4 0,-32 53,0 4,4 0,32 z" /><path
       inkscape:connector-curvature="0"
       id="path3440"
       style="fill:none;stroke:#000000;stroke-width:1;stroke-linecap:butt;stroke-linejoin:round;stroke-miterlimit:10;stroke-dasharray:none;stroke-opacity:1"
       d="m 510.5,58.875 -53,0" /><path
       inkscape:connector-curvature="0"
       id="path3442"
       style="fill:none;stroke:#000000;stroke-width:1;stroke-linecap:butt;stroke-linejoin:round;stroke-miterlimit:10;stroke-dasharray:none;stroke-opacity:1"
       d="m 510.5,58.875 0,-32" /><path
       inkscape:connector-curvature="0"
       id="path3444"
       style="fill:none;stroke:#000000;stroke-width:1;stroke-linecap:butt;stroke-linejoin:round;stroke-miterlimit:10;stroke-dasharray:none;stroke-opacity:1"
       d="m 510.5,58.875 4,4" /><text
       id="text3446"
       style="font-variant:normal;font-size:14.00024414px;font-family:NimbusRomNo9L;-inkscape-font-specification:NimbusRomNo9L-Regu;writing-mode:lr-tb;fill:#000000;fill-opacity:1;fill-rule:nonzero;stroke:none"
       transform="scale(1,-1)"
       x="465.5"
       y="-41.175781"><tspan
         id="tspan3448"
         sodipodi:role="line"
         y="-41.175781"
         x="465.5 470.75009 474.50217 480.49426 485.00235 488.75439 492.50647 499.25458">starting</tspan></text>
<text
       id="text3466"
       style="font-variant:normal;font-size:14.00024414px;font-family:NimbusRomNo9L;-inkscape-font-specification:NimbusRomNo9L-Regu;writing-mode:lr-tb;fill:#000000;fill-opacity:1;fill-rule:nonzero;stroke:none"
       transform="scale(1,-1)"
       x="434.61395"
       y="15.336605"><tspan
         id="tspan3468"
         sodipodi:role="line"
         y="15.336605"
         x="434.61395 441.36206 451.12024 458.61035 462.36243 472.12061 478.86871 484.86084 488.61292 492.36493 498.37103 505.1192 508.87128">vNF Available</tspan></text>
<path
       inkscape:connector-curvature="0"
       id="path3370"
       style="fill:#88cc88;fill-opacity:1;fill-rule:nonzero;stroke:#000000;stroke-width:1;stroke-linecap:butt;stroke-linejoin:round;stroke-miterlimit:10;stroke-dasharray:none;stroke-opacity:1"
       d="m 297.39554,-19.045726 233,0 0,-75 -233,0 0,75 z" /><text
       id="text3372"
       style="font-variant:normal;font-size:14.00024414px;font-family:NimbusRomNo9L;-inkscape-font-specification:NimbusRomNo9L-Regu;writing-mode:lr-tb;fill:#000000;fill-opacity:1;fill-rule:nonzero;stroke:none"
       transform="scale(1,-1)"
       x="269.43353"
       y="35.683426"><tspan
         id="tspan3374"
         sodipodi:role="line"
         y="35.683426"
         x="269.43353 279.17767 285.93982 291.93195 296.44 302.43213 306.18414 309.93622 316.68439 327.18451 334.68866 341.43677 347.44287 352.69299 358.68512 362.43713 366.94525 370.68329 378.20142 384.94952 394.7077 402.21185 410.45801 417.20612 426.96429 434.45441 438.20648 446.45264 453.21472 459.96283 465.95496 472.7171 478.70917">OperationPhase - SvNF+vNF Engaged</tspan></text>
<g
       id="g4052"
       transform="translate(121.55161,10.788604)"><path
         d="m 334.64492,-62.27281 -50,0 -4,-4 0,-32 50,0 4,4 0,32 z"
         style="fill:#e1f5f5;fill-opacity:1;fill-rule:nonzero;stroke:#000000;stroke-width:1;stroke-linecap:butt;stroke-linejoin:round;stroke-miterlimit:10;stroke-dasharray:none;stroke-opacity:1"
         id="path3450"
         inkscape:connector-curvature="0" /><path
         d="m 330.64492,-66.27281 -50,0"
         style="fill:none;stroke:#000000;stroke-width:1;stroke-linecap:butt;stroke-linejoin:round;stroke-miterlimit:10;stroke-dasharray:none;stroke-opacity:1"
         id="path3452"
         inkscape:connector-curvature="0" /><path
         d="m 330.64492,-66.27281 0,-32"
         style="fill:none;stroke:#000000;stroke-width:1;stroke-linecap:butt;stroke-linejoin:round;stroke-miterlimit:10;stroke-dasharray:none;stroke-opacity:1"
         id="path3454"
         inkscape:connector-curvature="0" /><path
         d="m 330.64492,-66.27281 4,4"
         style="fill:none;stroke:#000000;stroke-width:1;stroke-linecap:butt;stroke-linejoin:round;stroke-miterlimit:10;stroke-dasharray:none;stroke-opacity:1"
         id="path3456"
         inkscape:connector-curvature="0" /><text
         y="83.972031"
         x="291.14493"
         transform="scale(1,-1)"
         style="font-variant:normal;font-size:14.00024414px;font-family:NimbusRomNo9L;-inkscape-font-specification:NimbusRomNo9L-Regu;writing-mode:lr-tb;fill:#000000;fill-opacity:1;fill-rule:nonzero;stroke:none"
         id="text3458"><tspan
           x="291.14493 297.15103 303.14316 306.89517 310.64725 317.39542"
           y="83.972031"
           sodipodi:role="line"
           id="tspan3460">active</tspan></text>
</g><g
       id="g4044"
       transform="translate(-110.04377,11.507845)"><path
         d="m 452.14492,-62.27281 -59,0 -4,-4 0,-32 59,0 4,4 0,32 z"
         style="fill:#f3dbdb;fill-opacity:1;fill-rule:nonzero;stroke:#000000;stroke-width:1;stroke-linecap:butt;stroke-linejoin:round;stroke-miterlimit:10;stroke-dasharray:none;stroke-opacity:1"
         id="path3470"
         inkscape:connector-curvature="0" /><path
         d="m 448.14492,-66.27281 -59,0"
         style="fill:none;stroke:#000000;stroke-width:1;stroke-linecap:butt;stroke-linejoin:round;stroke-miterlimit:10;stroke-dasharray:none;stroke-opacity:1"
         id="path3472"
         inkscape:connector-curvature="0" /><path
         d="m 448.14492,-66.27281 0,-32"
         style="fill:none;stroke:#000000;stroke-width:1;stroke-linecap:butt;stroke-linejoin:round;stroke-miterlimit:10;stroke-dasharray:none;stroke-opacity:1"
         id="path3474"
         inkscape:connector-curvature="0" /><path
         d="m 448.14492,-66.27281 4,4"
         style="fill:none;stroke:#000000;stroke-width:1;stroke-linecap:butt;stroke-linejoin:round;stroke-miterlimit:10;stroke-dasharray:none;stroke-opacity:1"
         id="path3476"
         inkscape:connector-curvature="0" /><text
         y="83.972031"
         x="397.14493"
         transform="scale(1,-1)"
         style="font-variant:normal;font-size:14.00024414px;font-family:NimbusRomNo9L;-inkscape-font-specification:NimbusRomNo9L-Regu;writing-mode:lr-tb;fill:#000000;fill-opacity:1;fill-rule:nonzero;stroke:none"
         id="text3478"><tspan
           x="397.14493 402.39505 406.14706 412.89517 419.64334 426.39145 430.14352 436.89163"
           y="83.972031"
           sodipodi:role="line"
           id="tspan3480">stopping</tspan></text>
</g><path
       inkscape:connector-curvature="0"
       id="path3486"
       style="fill:none;stroke:#000000;stroke-width:1;stroke-linecap:butt;stroke-linejoin:round;stroke-miterlimit:10;stroke-dasharray:2, 6;stroke-dashoffset:0;stroke-opacity:1"
       d="m 356.24512,-70.922687 43.997,0" /><path
       inkscape:connector-curvature="0"
       id="path3488"
       style="fill:#000000;fill-opacity:1;fill-rule:nonzero;stroke:#000000;stroke-width:1.04415262;stroke-linecap:butt;stroke-linejoin:round;stroke-miterlimit:10;stroke-dasharray:none;stroke-opacity:1"
       d="m 353.58266,-67.444761 -10.97174,-3.477925 10.97174,-3.477925 0,6.95585 z" /><text
       id="text3490"
       style="font-variant:normal;font-size:9.99975586px;font-family:NimbusRomNo9L;-inkscape-font-specification:NimbusRomNo9L-Regu;writing-mode:lr-tb;fill:#696969;fill-opacity:1;fill-rule:nonzero;stroke:none"
       transform="scale(1,-1)"
       x="363.43353"
       y="66.484207"><tspan
         id="tspan3492"
         sodipodi:role="line"
         y="66.484207"
         x="363.43353 367.18341 370.18335 375.43323">stop</tspan></text>
<path
       inkscape:connector-curvature="0"
       id="path3484"
       style="fill:#000000;fill-opacity:1;fill-rule:nonzero;stroke:#000000;stroke-width:1;stroke-linecap:butt;stroke-linejoin:round;stroke-miterlimit:10;stroke-dasharray:none;stroke-opacity:1"
       d="m 467.58415,-64.415035 -10.31194,2.432636 9.58164,4.528764 0.7303,-6.9614 z" /><path
       inkscape:connector-curvature="0"
       id="path3494"
       style="fill:none;stroke:#000000;stroke-width:1;stroke-linecap:butt;stroke-linejoin:round;stroke-miterlimit:10;stroke-dasharray:2, 6;stroke-dashoffset:0;stroke-opacity:1"
       d="m 331.957,53.27 c -5.914,1.402 -12.102,2.695 -17.957,3.605 -12.133,1.891 -25.434,3.066 -37.562,3.801" /><path
       inkscape:connector-curvature="0"
       id="path3496"
       style="fill:#000000;fill-opacity:1;fill-rule:nonzero;stroke:#000000;stroke-width:1;stroke-linecap:butt;stroke-linejoin:round;stroke-miterlimit:10;stroke-dasharray:none;stroke-opacity:1"
       d="m 275.945,57.199 -9.804,4.016 10.168,2.972 -0.364,-6.988 z" /><path
       inkscape:connector-curvature="0"
       id="path3498"
       style="fill:none;stroke:#000000;stroke-width:1;stroke-linecap:butt;stroke-linejoin:round;stroke-miterlimit:10;stroke-dasharray:2, 6;stroke-dashoffset:0;stroke-opacity:1"
       d="m 394.223,58.363 c 13.32,5.946 29.281,13.067 44.078,19.672" /><path
       inkscape:connector-curvature="0"
       id="path3500"
       style="fill:#000000;fill-opacity:1;fill-rule:nonzero;stroke:#000000;stroke-width:1;stroke-linecap:butt;stroke-linejoin:round;stroke-miterlimit:10;stroke-dasharray:none;stroke-opacity:1"
       d="m 437.258,81.402 10.558,0.879 -7.703,-7.273 -2.855,6.394 z" /><path
       inkscape:connector-curvature="0"
       id="path3502"
       style="fill:none;stroke:#000000;stroke-width:2;stroke-linecap:butt;stroke-linejoin:round;stroke-miterlimit:10;stroke-dasharray:none;stroke-opacity:1"
       d="m 394.223,44.875 52.828,0" /><path
       inkscape:connector-curvature="0"
       id="path3504"
       style="fill:#000000;fill-opacity:1;fill-rule:nonzero;stroke:#000000;stroke-width:2;stroke-linecap:butt;stroke-linejoin:round;stroke-miterlimit:10;stroke-dasharray:none;stroke-opacity:1"
       d="m 447.234,48.375 10,-3.5 -10,-3.5 0,7 z" /><text
       id="text3506"
       style="font-variant:normal;font-size:9.99975586px;font-family:NimbusRomNo9L;-inkscape-font-specification:NimbusRomNo9L-Regu;writing-mode:lr-tb;fill:#696969;fill-opacity:1;fill-rule:nonzero;stroke:none"
       transform="scale(1,-1)"
       x="412"
       y="-47.875"><tspan
         id="tspan3508"
         sodipodi:role="line"
         y="-47.875"
         x="412 415.74991 418.74985 423.24973 426.24966">start</tspan></text>
<path
       inkscape:connector-curvature="0"
       id="path3510"
       style="fill:none;stroke:#000000;stroke-width:2;stroke-linecap:butt;stroke-linejoin:round;stroke-miterlimit:10;stroke-dasharray:none;stroke-opacity:1"
       d="m 352.508,63.027 c -1.613,9.387 1.883,17.848 10.492,17.848 5.246,0 8.594,-3.141 10.043,-7.719" /><path
       inkscape:connector-curvature="0"
       id="path3512"
       style="fill:#000000;fill-opacity:1;fill-rule:nonzero;stroke:#000000;stroke-width:2;stroke-linecap:butt;stroke-linejoin:round;stroke-miterlimit:10;stroke-dasharray:none;stroke-opacity:1"
       d="m 376.547,73.172 -3.055,-10.145 -3.937,9.836 6.992,0.309 z" /><text
       id="text3514"
       style="font-variant:normal;font-size:14.00024414px;font-family:NimbusRomNo9L;-inkscape-font-specification:NimbusRomNo9L-Regu;writing-mode:lr-tb;fill:#000000;fill-opacity:1;fill-rule:nonzero;stroke:none"
       transform="scale(1,-1)"
       x="317"
       y="-84.675781"><tspan
         id="tspan3516"
         sodipodi:role="line"
         y="-84.675781"
         x="317 330.49625 336.50235 340.25439 344.00647 347.75854 354.50665 361.25476 365.00684 369.50092 376.24902 380.75711 384.50919 391.25729 401.00146">Waiting for vNF</tspan></text>
<path
       inkscape:connector-curvature="0"
       id="path3518"
       style="fill:#f3dbdb;fill-opacity:1;fill-rule:nonzero;stroke:#000000;stroke-width:0.63376105;stroke-linecap:butt;stroke-linejoin:round;stroke-miterlimit:10;stroke-dasharray:none;stroke-opacity:1"
       d="m 550.31039,212.93436 -89.99408,0 -2.53504,-2.53504 0,-20.28036 89.99407,0 2.53505,2.53505 0,20.28035 z" /><path
       inkscape:connector-curvature="0"
       id="path3520"
       style="fill:none;stroke:#000000;stroke-width:0.63376105;stroke-linecap:butt;stroke-linejoin:round;stroke-miterlimit:10;stroke-dasharray:none;stroke-opacity:1"
       d="m 547.77534,210.39932 -89.99407,0" /><path
       inkscape:connector-curvature="0"
       id="path3522"
       style="fill:none;stroke:#000000;stroke-width:0.63376105;stroke-linecap:butt;stroke-linejoin:round;stroke-miterlimit:10;stroke-dasharray:none;stroke-opacity:1"
       d="m 547.77534,210.39932 0,-20.28036" /><path
       inkscape:connector-curvature="0"
       id="path3524"
       style="fill:none;stroke:#000000;stroke-width:0.63376105;stroke-linecap:butt;stroke-linejoin:round;stroke-miterlimit:10;stroke-dasharray:none;stroke-opacity:1"
       d="m 547.77534,210.39932 2.53505,2.53504" /><text
       id="text3526"
       style="font-variant:normal;font-size:8.87280941px;font-family:NimbusRomNo9L;-inkscape-font-specification:NimbusRomNo9L-Regu;writing-mode:lr-tb;fill:#000000;fill-opacity:1;fill-rule:nonzero;stroke:none"
       transform="scale(1,-1)"
       x="462.85135"
       y="-199.18224"><tspan
         id="tspan3528"
         sodipodi:role="line"
         y="-199.18224"
         x="462.85135 467.60718 471.40475 474.26178 478.53848 480.91641 484.71396 488.52039 490.89832 495.17502 499.45169 501.82962 504.20752 508.48422 512.29065 514.66858 520.84406 524.65045 527.01953 530.83484 537.01917 540.81671">Service on the Gateway</tspan></text>
<path
       inkscape:connector-curvature="0"
       id="path3530"
       style="fill:#e1f5f5;fill-opacity:1;fill-rule:nonzero;stroke:#000000;stroke-width:0.63376105;stroke-linecap:butt;stroke-linejoin:round;stroke-miterlimit:10;stroke-dasharray:none;stroke-opacity:1"
       d="m 542.70525,178.71126 -74.7838,0 -2.53505,-2.53504 0,-20.28036 74.78381,0 2.53504,2.53505 0,20.28035 z" /><path
       inkscape:connector-curvature="0"
       id="path3532"
       style="fill:none;stroke:#000000;stroke-width:0.63376105;stroke-linecap:butt;stroke-linejoin:round;stroke-miterlimit:10;stroke-dasharray:none;stroke-opacity:1"
       d="m 540.17021,176.17622 -74.78381,0" /><path
       inkscape:connector-curvature="0"
       id="path3534"
       style="fill:none;stroke:#000000;stroke-width:0.63376105;stroke-linecap:butt;stroke-linejoin:round;stroke-miterlimit:10;stroke-dasharray:none;stroke-opacity:1"
       d="m 540.17021,176.17622 0,-20.28036" /><path
       inkscape:connector-curvature="0"
       id="path3536"
       style="fill:none;stroke:#000000;stroke-width:0.63376105;stroke-linecap:butt;stroke-linejoin:round;stroke-miterlimit:10;stroke-dasharray:none;stroke-opacity:1"
       d="m 540.17021,176.17622 2.53504,2.53504" /><text
       id="text3538"
       style="font-variant:normal;font-size:8.87280941px;font-family:NimbusRomNo9L;-inkscape-font-specification:NimbusRomNo9L-Regu;writing-mode:lr-tb;fill:#000000;fill-opacity:1;fill-rule:nonzero;stroke:none"
       transform="scale(1,-1)"
       x="470.45648"
       y="-164.95914"><tspan
         id="tspan3540"
         sodipodi:role="line"
         y="-164.95914"
         x="470.45648 475.21231 479.00989 481.86691 486.14362 488.52155 492.31909 496.12552 498.50345 502.78012 507.05682 509.43475 511.81265 516.08936 519.89581 522.27368 526.55042 532.72589">Service on the vNF</tspan></text>
<path
       style="fill:none;fill-rule:evenodd;stroke:#000000;stroke-width:2.4000001;stroke-linecap:butt;stroke-linejoin:miter;stroke-miterlimit:4;stroke-dasharray:none;stroke-opacity:1"
       d="m 495.55657,25.892648 c 0,0 82.71263,-85.589592 -36.68126,-87.028072"
       id="path4085"
       inkscape:connector-curvature="0" /><path
       style="fill:none;fill-rule:evenodd;stroke:#000000;stroke-width:2.1236949;stroke-linecap:butt;stroke-linejoin:miter;stroke-miterlimit:0.89999998;stroke-dasharray:none;stroke-opacity:1;marker-end:url(#TriangleOutM)"
       d="m 278.74797,-71.7316 c 0,0 -102.39381,65.741652 42.04057,101.026073"
       id="path4887"
       inkscape:connector-curvature="0" /><path
       style="fill:none;fill-rule:evenodd;stroke:#000000;stroke-width:2.27107573;stroke-linecap:butt;stroke-linejoin:miter;stroke-miterlimit:4;stroke-dasharray:none;stroke-opacity:1;marker-end:url(#marker5397)"
       d="m 297.84803,188.50739 c 0,0 -174.30242,9.00386 -95.07405,-116.407032"
       id="path5363"
       inkscape:connector-curvature="0" /><path
       style="opacity:0;fill:#000000;fill-opacity:1;stroke-width:3;stroke-miterlimit:4;stroke-dasharray:none"
       d="m 312.0192,365.42004 0,-20.75594 3.82096,2.86537 c 2.10153,1.57595 6.58059,4.72373 9.95347,6.99506 5.00869,3.3729 6.28303,3.89178 6.95388,2.83147 0.52212,-0.82525 0.82638,2.71421 0.83513,9.71515 l 0.0138,11.01337 37.58375,0 37.58375,0 2.87351,-2.96472 c 2.6916,-2.77701 2.87352,-3.37467 2.87352,-9.44003 0,-3.56142 0.36853,-6.47531 0.81896,-6.47531 0.45041,0 3.35377,0.78893 6.4519,1.75317 3.09811,0.96425 5.96617,1.54723 6.37344,1.29552 0.92541,-0.57193 0.98798,-10.24361 0.0662,-10.23422 -0.37085,0.004 -3.30401,0.80983 -6.51811,1.79123 -3.21411,0.9814 -6.14726,1.78745 -6.51812,1.79123 -0.37081,0.004 -0.67424,-5.45486 -0.67424,-12.13031 l 0,-12.13718 -37.93568,0 -37.93568,0 -2.52159,2.41583 c -2.44357,2.34109 -2.52158,2.70268 -2.52158,11.68765 0,5.09951 -0.25571,9.27183 -0.56825,9.27183 -0.49866,0 -15.20114,-10.42811 -19.43562,-13.78521 -1.42362,-1.12865 -1.57334,-3.39818 -1.57334,-23.84926 l 0,-22.60191 144.29758,0 144.29759,0 0,21.97368 c 0,12.08552 -0.35081,22.19048 -0.77957,22.45547 -0.98698,0.61 -15.73004,2.89162 -23.71955,3.67083 -5.73639,0.55946 -6.06859,0.48951 -6.06859,-1.2778 0,-1.02831 -0.19147,-1.86966 -0.42548,-1.86966 -0.42955,0 -7.6893,3.16605 -10.57569,4.61216 -2.44643,1.22568 -2.48459,1.14103 -2.48459,-5.51121 l 0,-6.29335 -31.73992,0 -31.73993,0 -2.87351,2.96471 -2.87352,2.96472 0,20.41059 0,20.4106 32.09186,0 32.09185,0 2.52159,-2.41583 2.52158,-2.41583 0,-13.31755 c 0,-10.07176 0.2739,-13.30975 1.12381,-13.28553 0.6181,0.0176 3.55125,0.61815 6.51812,1.33453 6.80524,1.64319 6.74288,1.64576 6.74288,-0.2776 0,-1.39177 1.66362,-1.81678 12.36194,-3.15815 6.79907,-0.85247 13.47452,-1.79424 14.83433,-2.09281 l 2.47239,-0.54286 0,21.68201 0,21.68202 -144.29759,0 -144.29758,0 0,-20.75593 z m 121.3718,-8.01368 c 0,-0.49448 -0.60686,-0.89905 -1.34858,-0.89905 -0.74171,0 -1.34857,0.40457 -1.34857,0.89905 0,0.49448 0.60686,0.89905 1.34857,0.89905 0.74172,0 1.34858,-0.40457 1.34858,-0.89905 z m 10.7886,0 c 0,-0.49448 -0.80914,-0.89905 -1.7981,-0.89905 -0.98895,0 -1.7981,0.40457 -1.7981,0.89905 0,0.49448 0.80915,0.89905 1.7981,0.89905 0.98896,0 1.7981,-0.40457 1.7981,-0.89905 z m 9.88956,0 c 0,-0.49448 -0.80915,-0.89905 -1.7981,-0.89905 -0.98896,0 -1.7981,0.40457 -1.7981,0.89905 0,0.49448 0.80914,0.89905 1.7981,0.89905 0.98895,0 1.7981,-0.40457 1.7981,-0.89905 z m 9.88955,0 c 0,-0.49448 -0.80914,-0.89905 -1.7981,-0.89905 -0.98895,0 -1.7981,0.40457 -1.7981,0.89905 0,0.49448 0.80915,0.89905 1.7981,0.89905 0.98896,0 1.7981,-0.40457 1.7981,-0.89905 z m 9.88956,0 c 0,-0.49448 -0.80915,-0.89905 -1.7981,-0.89905 -0.98896,0 -1.79811,0.40457 -1.79811,0.89905 0,0.49448 0.80915,0.89905 1.79811,0.89905 0.98895,0 1.7981,-0.40457 1.7981,-0.89905 z m 9.88955,0 c 0,-0.49448 -0.80915,-0.89905 -1.7981,-0.89905 -0.98896,0 -1.7981,0.40457 -1.7981,0.89905 0,0.49448 0.80914,0.89905 1.7981,0.89905 0.98895,0 1.7981,-0.40457 1.7981,-0.89905 z m -26.07246,-4.04573 c 0,-0.74488 0.79725,-1.34857 1.78097,-1.34857 1.91257,0 3.31561,-3.42953 2.38993,-5.84182 -0.7667,-1.99799 -5.96111,-1.80503 -5.99634,0.22275 -0.0257,1.47971 -0.0809,1.4814 -0.92779,0.0285 -0.61019,-1.04686 -1.93132,-1.50613 -4.09822,-1.42467 -1.88638,0.0709 -3.5337,-0.40162 -4.01697,-1.15227 -0.586,-0.91022 -1.0112,-0.98215 -1.49352,-0.25268 -0.37086,0.5609 -1.47879,1.1724 -2.46207,1.3589 -2.51261,0.47658 -2.90625,3.46392 -0.53804,4.08323 1.03196,0.26986 1.87629,0.87531 1.87629,1.34544 0,0.47012 -0.80914,0.59796 -1.7981,0.28408 -0.98895,-0.31388 -1.7981,-0.17255 -1.7981,0.31407 0,0.50447 2.90421,0.87198 6.75674,0.85503 5.28052,-0.0232 6.94417,-0.35063 7.61459,-1.49847 0.6717,-1.15002 0.86378,-0.83468 0.88519,1.45318 0.015,1.60706 0.43191,2.92192 0.92639,2.92192 0.49448,0 0.89905,-0.60686 0.89905,-1.34858 z m -119.5737,-38.18142 c 0,-1.16063 0.44004,-1.60103 1.27832,-1.27935 0.70308,0.2698 2.0926,0.0548 3.08781,-0.47787 1.12523,-0.6022 2.5967,-0.67211 3.89122,-0.18487 1.14495,0.43095 3.39659,0.58737 5.00364,0.34761 2.70095,-0.40296 2.92192,-0.69147 2.92192,-3.81518 0,-3.2692 0.12186,-3.39874 3.74206,-3.97763 2.21483,-0.35416 4.12284,-0.2176 4.67506,0.33462 0.64463,0.64463 0.3444,0.933 -0.97138,0.933 -1.04741,0 -2.54433,0.24557 -3.32649,0.54571 -1.69313,0.64972 -1.8915,4.28096 -0.29829,5.4603 0.91813,0.67963 6.14553,0.82509 13.03623,0.36275 0.75369,-0.0506 1.12381,-1.70395 1.12381,-5.02019 0,-4.89483 -0.0272,-4.94477 -2.69715,-4.94477 -1.7981,0 -2.69715,-0.44953 -2.69715,-1.34858 0,-0.74171 -0.40457,-1.34857 -0.89905,-1.34857 -0.49448,0 -0.89905,0.60686 -0.89905,1.34857 0,1.45204 -1.17174,1.53784 -19.96657,1.46202 -8.46365,-0.0341 -9.84936,-0.26071 -11.46289,-1.87424 -2.29569,-2.29569 -5.49899,-2.34754 -8.23348,-0.13328 -2.97185,2.40645 -2.97185,8.57411 0,10.98056 2.70734,2.19227 4.68662,2.15042 7.62541,-0.16123 l 2.36887,-1.86336 0,3.21193 c 0,2.25568 0.40149,3.21193 1.34857,3.21193 0.74205,0 1.34858,-0.79602 1.34858,-1.76988 z m 222.86955,0.14918 c 0.70181,-1.31133 2.1817,-1.66266 7.75284,-1.84052 4.84918,-0.15481 6.70368,0.0743 6.27078,0.77474 -0.33806,0.54701 -1.56879,0.86953 -2.73495,0.71671 -1.16616,-0.15282 -2.24009,0.12672 -2.38652,0.6212 -0.14643,0.49447 1.25163,1.02466 3.10679,1.17818 2.92646,0.24217 3.49072,-0.0304 4.26199,-2.05905 0.69752,-1.83458 1.22966,-2.1692 2.47081,-1.55366 1.3485,0.66879 5.76569,0.77938 12.14568,0.30411 1.34814,-0.10043 1.57334,-1.08232 1.57334,-6.86009 0,-3.89588 -0.3796,-6.74287 -0.89906,-6.74287 -0.49447,0 -0.89905,0.80914 -0.89905,1.7981 0,2.00477 -0.70636,2.10742 -12.91046,1.87615 -3.94473,-0.0747 -7.58331,0.2949 -8.23617,0.83673 -0.81132,0.67333 -1.348,0.68189 -1.75217,0.0279 -0.77768,-1.25831 -13.68021,-1.22737 -14.4602,0.0347 -0.43498,0.70381 -0.87763,0.70381 -1.58145,0 -0.53756,-0.53756 -2.51476,-0.97738 -4.39377,-0.97738 l -3.41639,0 0,4.94477 c 0,3.7084 0.32426,4.94478 1.29688,4.94478 0.88301,0 1.38511,-1.21937 1.57333,-3.82096 0.19349,-2.67418 0.68121,-3.82097 1.62504,-3.82097 0.94659,0 1.43167,1.15308 1.62734,3.86833 0.21601,2.99739 0.62085,3.83435 1.7981,3.71743 3.78067,-0.37547 6.53961,0.10571 5.96226,1.03989 -0.33438,0.54104 -1.57198,0.79943 -2.75021,0.57419 -1.40841,-0.26923 -2.14224,0.01 -2.14224,0.81439 0,1.92585 6.03499,1.58845 7.09746,-0.3968 z m -179.91518,-2.476 c 1.11998,-0.78447 1.99815,-0.98203 1.99815,-0.44953 0,0.52252 0.40457,0.95003 0.89905,0.95003 0.49448,0 0.89905,-1.575 0.89905,-3.50001 0,-2.37003 0.46158,-3.67714 1.42971,-4.04865 2.25707,-0.86612 3.06554,0.19025 3.06554,4.00552 0,1.94873 0.42572,3.54314 0.94604,3.54314 0.57638,0 0.83985,-1.84426 0.67428,-4.72001 l -0.27174,-4.72002 -3.82097,-0.12988 c -2.98912,-0.1016 -3.82691,0.19199 -3.8483,1.34858 -0.0243,1.31287 -0.12997,1.30224 -0.94373,-0.0949 -1.13927,-1.95602 -5.58364,-2.07643 -7.14623,-0.19362 -1.63165,1.96601 -1.27828,6.88918 0.59267,8.25726 2.05043,1.49931 3.09911,1.45226 5.52648,-0.24793 z m 46.70593,0.14588 c 0.26463,-0.26464 1.2288,-0.081 2.1426,0.40801 1.97854,1.05888 6.19359,0.18549 6.19359,-1.28336 0,-0.56927 -1.27635,-1.03113 -2.83634,-1.02634 -1.55999,0.005 -3.00971,-0.49703 -3.2216,-1.11513 -0.2611,-0.76164 0.65297,-1.12381 2.83635,-1.12381 2.47406,0 3.2184,-0.36507 3.20783,-1.57334 -0.031,-3.54393 -0.94227,-3.75921 -15.07798,-3.56214 -13.64307,0.1902 -13.67913,0.18537 -13.6785,-1.83216 3.4e-4,-1.11258 -0.40394,-2.02286 -0.89842,-2.02286 -0.51946,0 -0.89905,2.84699 -0.89905,6.74287 0,3.89589 0.37959,6.74288 0.89905,6.74288 0.49448,0 0.89905,-1.575 0.89905,-3.50001 0,-2.37003 0.46158,-3.67714 1.4297,-4.04865 2.24898,-0.86301 3.06555,0.18728 3.06555,3.94299 0,2.91682 0.32767,3.53164 2.02286,3.79562 2.85311,0.44431 13.33671,0.034 13.91531,-0.54457 z m 31.26669,-0.91695 c 2.09024,-2.09023 2.19146,-2.10498 2.73311,-0.39839 0.90364,2.84714 3.19615,1.54238 4.9641,-2.82529 l 1.63763,-4.04573 0.0503,4.27049 c 0.0682,5.79587 1.68722,5.43666 2.02611,-0.44952 l 0.27173,-4.72002 2.48754,4.72002 c 3.64646,6.91906 5.15439,6.32727 5.15439,-2.02287 0,-3.89588 -0.3796,-6.74287 -0.89905,-6.74287 -0.49448,0 -0.90798,2.124 -0.91889,4.72001 l -0.0199,4.72001 -2.75152,-4.72001 c -2.79785,-4.79955 -5.30023,-6.17904 -5.30023,-2.92191 0,0.98895 -0.52558,1.7981 -1.16796,1.7981 -0.64238,0 -1.72729,1.51714 -2.41091,3.37144 l -1.24294,3.37143 -1.30729,-3.37143 c -0.71902,-1.8543 -1.65697,-3.37144 -2.08435,-3.37144 -0.42737,0 -0.77705,-0.56358 -0.77705,-1.25239 0,-2.66291 -5.14041,-3.11611 -8.10606,-0.71467 -2.95656,2.39408 -1.72998,5.26627 2.76598,6.47691 1.94809,0.52456 3.54198,1.35543 3.54198,1.84637 0,1.52742 -2.8448,2.07371 -5.52688,1.06134 -2.24273,-0.84654 -2.56457,-0.76001 -2.56457,0.68946 0,1.5692 1.48988,2.24286 5.65992,2.55915 0.88781,0.0673 2.59098,-0.85435 3.78482,-2.04819 z m -60.69062,-0.97605 c 0,-1.76724 0.45687,-2.24763 2.13755,-2.24763 2.79955,0 4.35613,-1.98139 3.99601,-5.08656 -0.22412,-1.93249 -0.9399,-2.68347 -3.16113,-3.31661 -4.91259,-1.4003 -5.66958,-0.52217 -5.66958,6.57685 0,5.01981 0.27771,6.32157 1.34858,6.32157 0.83911,0 1.34857,-0.8491 1.34857,-2.24762 z m 84.51074,-0.44953 c 0,-2.39747 0.29968,-2.69715 2.69715,-2.69715 1.7981,0 2.69715,-0.44953 2.69715,-1.34858 0,-0.89905 -0.89905,-1.34857 -2.69715,-1.34857 -1.7981,0 -2.69715,-0.44953 -2.69715,-1.34858 0,-0.94186 0.949,-1.34857 3.14668,-1.34857 2.24696,0 3.14667,-0.39968 3.14667,-1.39784 0,-1.10668 -0.88948,-1.34076 -4.27049,-1.12381 l -4.27049,0.27402 -0.26415,6.51812 c -0.21846,5.39079 -0.0241,6.51811 1.12382,6.51811 0.94281,0 1.38796,-0.86503 1.38796,-2.69715 z m 13.48576,0.44953 c 0,-1.80398 0.44804,-2.24763 2.26987,-2.24763 1.59396,0 2.52435,0.66929 3.12443,2.24763 1.2276,3.22883 3.1871,2.77028 4.80229,-1.12382 l 1.3984,-3.37144 0.0463,3.37144 c 0.0326,2.37688 0.44415,3.37144 1.39491,3.37144 1.02497,0 1.35333,-1.13263 1.36841,-4.72001 l 0.0199,-4.72002 2.75152,4.72002 c 3.96835,6.80737 5.30025,6.29905 5.30025,-2.02287 0,-7.63841 -1.56059,-9.23611 -1.97587,-2.02286 l -0.27175,4.72001 -2.48754,-4.72001 c -2.52611,-4.79322 -4.74,-5.99612 -5.79131,-3.14668 -0.31927,0.86534 -0.87194,1.77563 -1.22813,2.02287 -0.3562,0.24724 -1.22893,1.86553 -1.93942,3.5962 l -1.29178,3.14667 -1.22869,-3.37143 c -1.27062,-3.48654 -4.19035,-4.9612 -3.11509,-1.57334 0.44508,1.4023 0.16156,1.7981 -1.28799,1.7981 -1.46584,0 -1.85868,-0.57006 -1.85868,-2.69715 0,-1.48344 -0.40458,-2.69715 -0.89906,-2.69715 -0.49447,0 -0.89905,1.21371 -0.89905,2.69715 0,2.27759 -0.34963,2.69715 -2.24762,2.69715 -1.2362,0 -2.24763,0.40457 -2.24763,0.89905 0,0.49448 1.01143,0.89905 2.24763,0.89905 1.7981,0 2.24762,0.44952 2.24762,2.24763 0,1.23619 0.40458,2.24762 0.89905,2.24762 0.49448,0 0.89906,-1.01143 0.89906,-2.24762 z m 26.97151,-0.44953 c 0,-2.39747 0.29968,-2.69715 2.69715,-2.69715 1.7981,0 2.69715,-0.44953 2.69715,-1.34858 0,-0.89905 -0.89905,-1.34857 -2.69715,-1.34857 -1.7981,0 -2.69715,-0.44953 -2.69715,-1.34858 0,-0.94186 0.949,-1.34857 3.14667,-1.34857 2.19768,0 3.14668,-0.40672 3.14668,-1.34858 0,-1.01892 -1.09884,-1.34857 -4.49525,-1.34857 l -4.49525,0 0,6.74287 c 0,5.39431 0.26971,6.74288 1.34857,6.74288 0.89905,0 1.34858,-0.89905 1.34858,-2.69715 z m 20.67815,1.7981 c 0,-0.49448 -1.61829,-0.89905 -3.5962,-0.89905 -3.23658,0 -3.5962,-0.22476 -3.5962,-2.24763 0,-2.02286 0.35962,-2.24762 3.5962,-2.24762 1.97791,0 3.5962,-0.40457 3.5962,-0.89905 0,-0.49448 -1.61829,-0.89905 -3.5962,-0.89905 -2.59725,0 -3.5962,-0.37461 -3.5962,-1.34858 0,-0.97397 0.99895,-1.34857 3.5962,-1.34857 2.59726,0 3.5962,-0.37461 3.5962,-1.34858 0,-1.01892 -1.09883,-1.34857 -4.49525,-1.34857 l -4.49525,0 0,6.74287 0,6.74288 4.49525,0 c 2.47239,0 4.49525,-0.40457 4.49525,-0.89905 z m -98.22125,-4.72001 c -0.20603,-0.6181 -1.52089,-1.12382 -2.92191,-1.12382 -1.40102,0 -2.71588,0.50572 -2.92192,1.12382 -0.25427,0.76283 0.68428,1.12381 2.92192,1.12381 2.23764,0 3.17619,-0.36098 2.92191,-1.12381 z m -73.49737,-6.51812 c 0,-0.74172 -0.60686,-1.34857 -1.34857,-1.34857 -0.74172,0 -1.34858,0.60685 -1.34858,1.34857 0,0.74172 0.60686,1.34858 1.34858,1.34858 0.74171,0 1.34857,-0.60686 1.34857,-1.34858 z"
       id="path5437"
       inkscape:connector-curvature="0"
       transform="matrix(0.8,0,0,-0.8,11.5,214.98405)" /><path
       style="opacity:0;fill:#000000;fill-opacity:1;stroke-width:3;stroke-miterlimit:4;stroke-dasharray:none"
       d="m 312.0192,365.42004 0,-20.75594 3.82096,2.86537 c 2.10153,1.57595 6.58059,4.72373 9.95347,6.99506 5.00869,3.3729 6.28303,3.89178 6.95388,2.83147 0.52212,-0.82525 0.82638,2.71421 0.83513,9.71515 l 0.0138,11.01337 37.58375,0 37.58375,0 2.87351,-2.96472 c 2.6916,-2.77701 2.87352,-3.37467 2.87352,-9.44003 0,-3.56142 0.36853,-6.47531 0.81896,-6.47531 0.45041,0 3.35377,0.78893 6.4519,1.75317 3.09811,0.96425 5.96617,1.54723 6.37344,1.29552 0.92541,-0.57193 0.98798,-10.24361 0.0662,-10.23422 -0.37085,0.004 -3.30401,0.80983 -6.51811,1.79123 -3.21411,0.9814 -6.14726,1.78745 -6.51812,1.79123 -0.37081,0.004 -0.67424,-5.45486 -0.67424,-12.13031 l 0,-12.13718 -37.93568,0 -37.93568,0 -2.52159,2.41583 c -2.44357,2.34109 -2.52158,2.70268 -2.52158,11.68765 0,5.09951 -0.25571,9.27183 -0.56825,9.27183 -0.49866,0 -15.20114,-10.42811 -19.43562,-13.78521 -1.42362,-1.12865 -1.57334,-3.39818 -1.57334,-23.84926 l 0,-22.60191 144.29758,0 144.29759,0 0,21.97368 c 0,12.08552 -0.35081,22.19048 -0.77957,22.45547 -0.98698,0.61 -15.73004,2.89162 -23.71955,3.67083 -5.73639,0.55946 -6.06859,0.48951 -6.06859,-1.2778 0,-1.02831 -0.19147,-1.86966 -0.42548,-1.86966 -0.42955,0 -7.6893,3.16605 -10.57569,4.61216 -2.44643,1.22568 -2.48459,1.14103 -2.48459,-5.51121 l 0,-6.29335 -31.73992,0 -31.73993,0 -2.87351,2.96471 -2.87352,2.96472 0,20.41059 0,20.4106 32.09186,0 32.09185,0 2.52159,-2.41583 2.52158,-2.41583 0,-13.31755 c 0,-10.07176 0.2739,-13.30975 1.12381,-13.28553 0.6181,0.0176 3.55125,0.61815 6.51812,1.33453 6.80524,1.64319 6.74288,1.64576 6.74288,-0.2776 0,-1.39177 1.66362,-1.81678 12.36194,-3.15815 6.79907,-0.85247 13.47452,-1.79424 14.83433,-2.09281 l 2.47239,-0.54286 0,21.68201 0,21.68202 -144.29759,0 -144.29758,0 0,-20.75593 z m 121.3718,-8.01368 c 0,-0.49448 -0.60686,-0.89905 -1.34858,-0.89905 -0.74171,0 -1.34857,0.40457 -1.34857,0.89905 0,0.49448 0.60686,0.89905 1.34857,0.89905 0.74172,0 1.34858,-0.40457 1.34858,-0.89905 z m 10.7886,0 c 0,-0.49448 -0.80914,-0.89905 -1.7981,-0.89905 -0.98895,0 -1.7981,0.40457 -1.7981,0.89905 0,0.49448 0.80915,0.89905 1.7981,0.89905 0.98896,0 1.7981,-0.40457 1.7981,-0.89905 z m 9.88956,0 c 0,-0.49448 -0.80915,-0.89905 -1.7981,-0.89905 -0.98896,0 -1.7981,0.40457 -1.7981,0.89905 0,0.49448 0.80914,0.89905 1.7981,0.89905 0.98895,0 1.7981,-0.40457 1.7981,-0.89905 z m 9.88955,0 c 0,-0.49448 -0.80914,-0.89905 -1.7981,-0.89905 -0.98895,0 -1.7981,0.40457 -1.7981,0.89905 0,0.49448 0.80915,0.89905 1.7981,0.89905 0.98896,0 1.7981,-0.40457 1.7981,-0.89905 z m 9.88956,0 c 0,-0.49448 -0.80915,-0.89905 -1.7981,-0.89905 -0.98896,0 -1.79811,0.40457 -1.79811,0.89905 0,0.49448 0.80915,0.89905 1.79811,0.89905 0.98895,0 1.7981,-0.40457 1.7981,-0.89905 z m 9.88955,0 c 0,-0.49448 -0.80915,-0.89905 -1.7981,-0.89905 -0.98896,0 -1.7981,0.40457 -1.7981,0.89905 0,0.49448 0.80914,0.89905 1.7981,0.89905 0.98895,0 1.7981,-0.40457 1.7981,-0.89905 z m -26.07246,-4.04573 c 0,-0.74488 0.79725,-1.34857 1.78097,-1.34857 1.91257,0 3.31561,-3.42953 2.38993,-5.84182 -0.7667,-1.99799 -5.96111,-1.80503 -5.99634,0.22275 -0.0257,1.47971 -0.0809,1.4814 -0.92779,0.0285 -0.61019,-1.04686 -1.93132,-1.50613 -4.09822,-1.42467 -1.88638,0.0709 -3.5337,-0.40162 -4.01697,-1.15227 -0.586,-0.91022 -1.0112,-0.98215 -1.49352,-0.25268 -0.37086,0.5609 -1.47879,1.1724 -2.46207,1.3589 -2.51261,0.47658 -2.90625,3.46392 -0.53804,4.08323 1.03196,0.26986 1.87629,0.87531 1.87629,1.34544 0,0.47012 -0.80914,0.59796 -1.7981,0.28408 -0.98895,-0.31388 -1.7981,-0.17255 -1.7981,0.31407 0,0.50447 2.90421,0.87198 6.75674,0.85503 5.28052,-0.0232 6.94417,-0.35063 7.61459,-1.49847 0.6717,-1.15002 0.86378,-0.83468 0.88519,1.45318 0.015,1.60706 0.43191,2.92192 0.92639,2.92192 0.49448,0 0.89905,-0.60686 0.89905,-1.34858 z m -119.5737,-38.18142 c 0,-1.16063 0.44004,-1.60103 1.27832,-1.27935 0.70308,0.2698 2.0926,0.0548 3.08781,-0.47787 1.12523,-0.6022 2.5967,-0.67211 3.89122,-0.18487 1.14495,0.43095 3.39659,0.58737 5.00364,0.34761 2.70095,-0.40296 2.92192,-0.69147 2.92192,-3.81518 0,-3.2692 0.12186,-3.39874 3.74206,-3.97763 2.21483,-0.35416 4.12284,-0.2176 4.67506,0.33462 0.64463,0.64463 0.3444,0.933 -0.97138,0.933 -1.04741,0 -2.54433,0.24557 -3.32649,0.54571 -1.69313,0.64972 -1.8915,4.28096 -0.29829,5.4603 0.91813,0.67963 6.14553,0.82509 13.03623,0.36275 0.75369,-0.0506 1.12381,-1.70395 1.12381,-5.02019 0,-4.89483 -0.0272,-4.94477 -2.69715,-4.94477 -1.7981,0 -2.69715,-0.44953 -2.69715,-1.34858 0,-0.74171 -0.40457,-1.34857 -0.89905,-1.34857 -0.49448,0 -0.89905,0.60686 -0.89905,1.34857 0,1.45204 -1.17174,1.53784 -19.96657,1.46202 -8.46365,-0.0341 -9.84936,-0.26071 -11.46289,-1.87424 -2.29569,-2.29569 -5.49899,-2.34754 -8.23348,-0.13328 -2.97185,2.40645 -2.97185,8.57411 0,10.98056 2.70734,2.19227 4.68662,2.15042 7.62541,-0.16123 l 2.36887,-1.86336 0,3.21193 c 0,2.25568 0.40149,3.21193 1.34857,3.21193 0.74205,0 1.34858,-0.79602 1.34858,-1.76988 z m 222.86955,0.14918 c 0.70181,-1.31133 2.1817,-1.66266 7.75284,-1.84052 4.84918,-0.15481 6.70368,0.0743 6.27078,0.77474 -0.33806,0.54701 -1.56879,0.86953 -2.73495,0.71671 -1.16616,-0.15282 -2.24009,0.12672 -2.38652,0.6212 -0.14643,0.49447 1.25163,1.02466 3.10679,1.17818 2.92646,0.24217 3.49072,-0.0304 4.26199,-2.05905 0.69752,-1.83458 1.22966,-2.1692 2.47081,-1.55366 1.3485,0.66879 5.76569,0.77938 12.14568,0.30411 1.34814,-0.10043 1.57334,-1.08232 1.57334,-6.86009 0,-3.89588 -0.3796,-6.74287 -0.89906,-6.74287 -0.49447,0 -0.89905,0.80914 -0.89905,1.7981 0,2.00477 -0.70636,2.10742 -12.91046,1.87615 -3.94473,-0.0747 -7.58331,0.2949 -8.23617,0.83673 -0.81132,0.67333 -1.348,0.68189 -1.75217,0.0279 -0.77768,-1.25831 -13.68021,-1.22737 -14.4602,0.0347 -0.43498,0.70381 -0.87763,0.70381 -1.58145,0 -0.53756,-0.53756 -2.51476,-0.97738 -4.39377,-0.97738 l -3.41639,0 0,4.94477 c 0,3.7084 0.32426,4.94478 1.29688,4.94478 0.88301,0 1.38511,-1.21937 1.57333,-3.82096 0.19349,-2.67418 0.68121,-3.82097 1.62504,-3.82097 0.94659,0 1.43167,1.15308 1.62734,3.86833 0.21601,2.99739 0.62085,3.83435 1.7981,3.71743 3.78067,-0.37547 6.53961,0.10571 5.96226,1.03989 -0.33438,0.54104 -1.57198,0.79943 -2.75021,0.57419 -1.40841,-0.26923 -2.14224,0.01 -2.14224,0.81439 0,1.92585 6.03499,1.58845 7.09746,-0.3968 z m -179.91518,-2.476 c 1.11998,-0.78447 1.99815,-0.98203 1.99815,-0.44953 0,0.52252 0.40457,0.95003 0.89905,0.95003 0.49448,0 0.89905,-1.575 0.89905,-3.50001 0,-2.37003 0.46158,-3.67714 1.42971,-4.04865 2.25707,-0.86612 3.06554,0.19025 3.06554,4.00552 0,1.94873 0.42572,3.54314 0.94604,3.54314 0.57638,0 0.83985,-1.84426 0.67428,-4.72001 l -0.27174,-4.72002 -3.82097,-0.12988 c -2.98912,-0.1016 -3.82691,0.19199 -3.8483,1.34858 -0.0243,1.31287 -0.12997,1.30224 -0.94373,-0.0949 -1.13927,-1.95602 -5.58364,-2.07643 -7.14623,-0.19362 -1.63165,1.96601 -1.27828,6.88918 0.59267,8.25726 2.05043,1.49931 3.09911,1.45226 5.52648,-0.24793 z m 46.70593,0.14588 c 0.26463,-0.26464 1.2288,-0.081 2.1426,0.40801 1.97854,1.05888 6.19359,0.18549 6.19359,-1.28336 0,-0.56927 -1.27635,-1.03113 -2.83634,-1.02634 -1.55999,0.005 -3.00971,-0.49703 -3.2216,-1.11513 -0.2611,-0.76164 0.65297,-1.12381 2.83635,-1.12381 2.47406,0 3.2184,-0.36507 3.20783,-1.57334 -0.031,-3.54393 -0.94227,-3.75921 -15.07798,-3.56214 -13.64307,0.1902 -13.67913,0.18537 -13.6785,-1.83216 3.4e-4,-1.11258 -0.40394,-2.02286 -0.89842,-2.02286 -0.51946,0 -0.89905,2.84699 -0.89905,6.74287 0,3.89589 0.37959,6.74288 0.89905,6.74288 0.49448,0 0.89905,-1.575 0.89905,-3.50001 0,-2.37003 0.46158,-3.67714 1.4297,-4.04865 2.24898,-0.86301 3.06555,0.18728 3.06555,3.94299 0,2.91682 0.32767,3.53164 2.02286,3.79562 2.85311,0.44431 13.33671,0.034 13.91531,-0.54457 z m 31.26669,-0.91695 c 2.09024,-2.09023 2.19146,-2.10498 2.73311,-0.39839 0.90364,2.84714 3.19615,1.54238 4.9641,-2.82529 l 1.63763,-4.04573 0.0503,4.27049 c 0.0682,5.79587 1.68722,5.43666 2.02611,-0.44952 l 0.27173,-4.72002 2.48754,4.72002 c 3.64646,6.91906 5.15439,6.32727 5.15439,-2.02287 0,-3.89588 -0.3796,-6.74287 -0.89905,-6.74287 -0.49448,0 -0.90798,2.124 -0.91889,4.72001 l -0.0199,4.72001 -2.75152,-4.72001 c -2.79785,-4.79955 -5.30023,-6.17904 -5.30023,-2.92191 0,0.98895 -0.52558,1.7981 -1.16796,1.7981 -0.64238,0 -1.72729,1.51714 -2.41091,3.37144 l -1.24294,3.37143 -1.30729,-3.37143 c -0.71902,-1.8543 -1.65697,-3.37144 -2.08435,-3.37144 -0.42737,0 -0.77705,-0.56358 -0.77705,-1.25239 0,-2.66291 -5.14041,-3.11611 -8.10606,-0.71467 -2.95656,2.39408 -1.72998,5.26627 2.76598,6.47691 1.94809,0.52456 3.54198,1.35543 3.54198,1.84637 0,1.52742 -2.8448,2.07371 -5.52688,1.06134 -2.24273,-0.84654 -2.56457,-0.76001 -2.56457,0.68946 0,1.5692 1.48988,2.24286 5.65992,2.55915 0.88781,0.0673 2.59098,-0.85435 3.78482,-2.04819 z m -60.69062,-0.97605 c 0,-1.76724 0.45687,-2.24763 2.13755,-2.24763 2.79955,0 4.35613,-1.98139 3.99601,-5.08656 -0.22412,-1.93249 -0.9399,-2.68347 -3.16113,-3.31661 -4.91259,-1.4003 -5.66958,-0.52217 -5.66958,6.57685 0,5.01981 0.27771,6.32157 1.34858,6.32157 0.83911,0 1.34857,-0.8491 1.34857,-2.24762 z m 84.51074,-0.44953 c 0,-2.39747 0.29968,-2.69715 2.69715,-2.69715 1.7981,0 2.69715,-0.44953 2.69715,-1.34858 0,-0.89905 -0.89905,-1.34857 -2.69715,-1.34857 -1.7981,0 -2.69715,-0.44953 -2.69715,-1.34858 0,-0.94186 0.949,-1.34857 3.14668,-1.34857 2.24696,0 3.14667,-0.39968 3.14667,-1.39784 0,-1.10668 -0.88948,-1.34076 -4.27049,-1.12381 l -4.27049,0.27402 -0.26415,6.51812 c -0.21846,5.39079 -0.0241,6.51811 1.12382,6.51811 0.94281,0 1.38796,-0.86503 1.38796,-2.69715 z m 13.48576,0.44953 c 0,-1.80398 0.44804,-2.24763 2.26987,-2.24763 1.59396,0 2.52435,0.66929 3.12443,2.24763 1.2276,3.22883 3.1871,2.77028 4.80229,-1.12382 l 1.3984,-3.37144 0.0463,3.37144 c 0.0326,2.37688 0.44415,3.37144 1.39491,3.37144 1.02497,0 1.35333,-1.13263 1.36841,-4.72001 l 0.0199,-4.72002 2.75152,4.72002 c 3.96835,6.80737 5.30025,6.29905 5.30025,-2.02287 0,-7.63841 -1.56059,-9.23611 -1.97587,-2.02286 l -0.27175,4.72001 -2.48754,-4.72001 c -2.52611,-4.79322 -4.74,-5.99612 -5.79131,-3.14668 -0.31927,0.86534 -0.87194,1.77563 -1.22813,2.02287 -0.3562,0.24724 -1.22893,1.86553 -1.93942,3.5962 l -1.29178,3.14667 -1.22869,-3.37143 c -1.27062,-3.48654 -4.19035,-4.9612 -3.11509,-1.57334 0.44508,1.4023 0.16156,1.7981 -1.28799,1.7981 -1.46584,0 -1.85868,-0.57006 -1.85868,-2.69715 0,-1.48344 -0.40458,-2.69715 -0.89906,-2.69715 -0.49447,0 -0.89905,1.21371 -0.89905,2.69715 0,2.27759 -0.34963,2.69715 -2.24762,2.69715 -1.2362,0 -2.24763,0.40457 -2.24763,0.89905 0,0.49448 1.01143,0.89905 2.24763,0.89905 1.7981,0 2.24762,0.44952 2.24762,2.24763 0,1.23619 0.40458,2.24762 0.89905,2.24762 0.49448,0 0.89906,-1.01143 0.89906,-2.24762 z m 26.97151,-0.44953 c 0,-2.39747 0.29968,-2.69715 2.69715,-2.69715 1.7981,0 2.69715,-0.44953 2.69715,-1.34858 0,-0.89905 -0.89905,-1.34857 -2.69715,-1.34857 -1.7981,0 -2.69715,-0.44953 -2.69715,-1.34858 0,-0.94186 0.949,-1.34857 3.14667,-1.34857 2.19768,0 3.14668,-0.40672 3.14668,-1.34858 0,-1.01892 -1.09884,-1.34857 -4.49525,-1.34857 l -4.49525,0 0,6.74287 c 0,5.39431 0.26971,6.74288 1.34857,6.74288 0.89905,0 1.34858,-0.89905 1.34858,-2.69715 z m 20.67815,1.7981 c 0,-0.49448 -1.61829,-0.89905 -3.5962,-0.89905 -3.23658,0 -3.5962,-0.22476 -3.5962,-2.24763 0,-2.02286 0.35962,-2.24762 3.5962,-2.24762 1.97791,0 3.5962,-0.40457 3.5962,-0.89905 0,-0.49448 -1.61829,-0.89905 -3.5962,-0.89905 -2.59725,0 -3.5962,-0.37461 -3.5962,-1.34858 0,-0.97397 0.99895,-1.34857 3.5962,-1.34857 2.59726,0 3.5962,-0.37461 3.5962,-1.34858 0,-1.01892 -1.09883,-1.34857 -4.49525,-1.34857 l -4.49525,0 0,6.74287 0,6.74288 4.49525,0 c 2.47239,0 4.49525,-0.40457 4.49525,-0.89905 z m -98.22125,-4.72001 c -0.20603,-0.6181 -1.52089,-1.12382 -2.92191,-1.12382 -1.40102,0 -2.71588,0.50572 -2.92192,1.12382 -0.25427,0.76283 0.68428,1.12381 2.92192,1.12381 2.23764,0 3.17619,-0.36098 2.92191,-1.12381 z m -73.49737,-6.51812 c 0,-0.74172 -0.60686,-1.34857 -1.34857,-1.34857 -0.74172,0 -1.34858,0.60685 -1.34858,1.34857 0,0.74172 0.60686,1.34858 1.34858,1.34858 0.74171,0 1.34857,-0.60686 1.34857,-1.34858 z"
       id="path5439"
       inkscape:connector-curvature="0"
       transform="matrix(0.8,0,0,-0.8,11.5,214.98405)" /><path
       style="opacity:0;fill:#000000;fill-opacity:1;stroke-width:3;stroke-miterlimit:4;stroke-dasharray:none"
       d="m 312.0192,365.42004 0,-20.75594 3.82096,2.86537 c 2.10153,1.57595 6.58059,4.72373 9.95347,6.99506 5.00869,3.3729 6.28303,3.89178 6.95388,2.83147 0.52212,-0.82525 0.82638,2.71421 0.83513,9.71515 l 0.0138,11.01337 37.58375,0 37.58375,0 2.87351,-2.96472 c 2.6916,-2.77701 2.87352,-3.37467 2.87352,-9.44003 0,-3.56142 0.36853,-6.47531 0.81896,-6.47531 0.45041,0 3.35377,0.78893 6.4519,1.75317 3.09811,0.96425 5.96617,1.54723 6.37344,1.29552 0.92541,-0.57193 0.98798,-10.24361 0.0662,-10.23422 -0.37085,0.004 -3.30401,0.80983 -6.51811,1.79123 -3.21411,0.9814 -6.14726,1.78745 -6.51812,1.79123 -0.37081,0.004 -0.67424,-5.45486 -0.67424,-12.13031 l 0,-12.13718 -37.93568,0 -37.93568,0 -2.52159,2.41583 c -2.44357,2.34109 -2.52158,2.70268 -2.52158,11.68765 0,5.09951 -0.25571,9.27183 -0.56825,9.27183 -0.49866,0 -15.20114,-10.42811 -19.43562,-13.78521 -1.42362,-1.12865 -1.57334,-3.39818 -1.57334,-23.84926 l 0,-22.60191 144.29758,0 144.29759,0 0,21.97368 c 0,12.08552 -0.35081,22.19048 -0.77957,22.45547 -0.98698,0.61 -15.73004,2.89162 -23.71955,3.67083 -5.73639,0.55946 -6.06859,0.48951 -6.06859,-1.2778 0,-1.02831 -0.19147,-1.86966 -0.42548,-1.86966 -0.42955,0 -7.6893,3.16605 -10.57569,4.61216 -2.44643,1.22568 -2.48459,1.14103 -2.48459,-5.51121 l 0,-6.29335 -31.73992,0 -31.73993,0 -2.87351,2.96471 -2.87352,2.96472 0,20.41059 0,20.4106 32.09186,0 32.09185,0 2.52159,-2.41583 2.52158,-2.41583 0,-13.31755 c 0,-10.07176 0.2739,-13.30975 1.12381,-13.28553 0.6181,0.0176 3.55125,0.61815 6.51812,1.33453 6.80524,1.64319 6.74288,1.64576 6.74288,-0.2776 0,-1.39177 1.66362,-1.81678 12.36194,-3.15815 6.79907,-0.85247 13.47452,-1.79424 14.83433,-2.09281 l 2.47239,-0.54286 0,21.68201 0,21.68202 -144.29759,0 -144.29758,0 0,-20.75593 z m 121.3718,-8.01368 c 0,-0.49448 -0.60686,-0.89905 -1.34858,-0.89905 -0.74171,0 -1.34857,0.40457 -1.34857,0.89905 0,0.49448 0.60686,0.89905 1.34857,0.89905 0.74172,0 1.34858,-0.40457 1.34858,-0.89905 z m 10.7886,0 c 0,-0.49448 -0.80914,-0.89905 -1.7981,-0.89905 -0.98895,0 -1.7981,0.40457 -1.7981,0.89905 0,0.49448 0.80915,0.89905 1.7981,0.89905 0.98896,0 1.7981,-0.40457 1.7981,-0.89905 z m 9.88956,0 c 0,-0.49448 -0.80915,-0.89905 -1.7981,-0.89905 -0.98896,0 -1.7981,0.40457 -1.7981,0.89905 0,0.49448 0.80914,0.89905 1.7981,0.89905 0.98895,0 1.7981,-0.40457 1.7981,-0.89905 z m 9.88955,0 c 0,-0.49448 -0.80914,-0.89905 -1.7981,-0.89905 -0.98895,0 -1.7981,0.40457 -1.7981,0.89905 0,0.49448 0.80915,0.89905 1.7981,0.89905 0.98896,0 1.7981,-0.40457 1.7981,-0.89905 z m 9.88956,0 c 0,-0.49448 -0.80915,-0.89905 -1.7981,-0.89905 -0.98896,0 -1.79811,0.40457 -1.79811,0.89905 0,0.49448 0.80915,0.89905 1.79811,0.89905 0.98895,0 1.7981,-0.40457 1.7981,-0.89905 z m 9.88955,0 c 0,-0.49448 -0.80915,-0.89905 -1.7981,-0.89905 -0.98896,0 -1.7981,0.40457 -1.7981,0.89905 0,0.49448 0.80914,0.89905 1.7981,0.89905 0.98895,0 1.7981,-0.40457 1.7981,-0.89905 z m -26.07246,-4.04573 c 0,-0.74488 0.79725,-1.34857 1.78097,-1.34857 1.91257,0 3.31561,-3.42953 2.38993,-5.84182 -0.7667,-1.99799 -5.96111,-1.80503 -5.99634,0.22275 -0.0257,1.47971 -0.0809,1.4814 -0.92779,0.0285 -0.61019,-1.04686 -1.93132,-1.50613 -4.09822,-1.42467 -1.88638,0.0709 -3.5337,-0.40162 -4.01697,-1.15227 -0.586,-0.91022 -1.0112,-0.98215 -1.49352,-0.25268 -0.37086,0.5609 -1.47879,1.1724 -2.46207,1.3589 -2.51261,0.47658 -2.90625,3.46392 -0.53804,4.08323 1.03196,0.26986 1.87629,0.87531 1.87629,1.34544 0,0.47012 -0.80914,0.59796 -1.7981,0.28408 -0.98895,-0.31388 -1.7981,-0.17255 -1.7981,0.31407 0,0.50447 2.90421,0.87198 6.75674,0.85503 5.28052,-0.0232 6.94417,-0.35063 7.61459,-1.49847 0.6717,-1.15002 0.86378,-0.83468 0.88519,1.45318 0.015,1.60706 0.43191,2.92192 0.92639,2.92192 0.49448,0 0.89905,-0.60686 0.89905,-1.34858 z m -119.5737,-38.18142 c 0,-1.16063 0.44004,-1.60103 1.27832,-1.27935 0.70308,0.2698 2.0926,0.0548 3.08781,-0.47787 1.12523,-0.6022 2.5967,-0.67211 3.89122,-0.18487 1.14495,0.43095 3.39659,0.58737 5.00364,0.34761 2.70095,-0.40296 2.92192,-0.69147 2.92192,-3.81518 0,-3.2692 0.12186,-3.39874 3.74206,-3.97763 2.21483,-0.35416 4.12284,-0.2176 4.67506,0.33462 0.64463,0.64463 0.3444,0.933 -0.97138,0.933 -1.04741,0 -2.54433,0.24557 -3.32649,0.54571 -1.69313,0.64972 -1.8915,4.28096 -0.29829,5.4603 0.91813,0.67963 6.14553,0.82509 13.03623,0.36275 0.75369,-0.0506 1.12381,-1.70395 1.12381,-5.02019 0,-4.89483 -0.0272,-4.94477 -2.69715,-4.94477 -1.7981,0 -2.69715,-0.44953 -2.69715,-1.34858 0,-0.74171 -0.40457,-1.34857 -0.89905,-1.34857 -0.49448,0 -0.89905,0.60686 -0.89905,1.34857 0,1.45204 -1.17174,1.53784 -19.96657,1.46202 -8.46365,-0.0341 -9.84936,-0.26071 -11.46289,-1.87424 -2.29569,-2.29569 -5.49899,-2.34754 -8.23348,-0.13328 -2.97185,2.40645 -2.97185,8.57411 0,10.98056 2.70734,2.19227 4.68662,2.15042 7.62541,-0.16123 l 2.36887,-1.86336 0,3.21193 c 0,2.25568 0.40149,3.21193 1.34857,3.21193 0.74205,0 1.34858,-0.79602 1.34858,-1.76988 z m 222.86955,0.14918 c 0.70181,-1.31133 2.1817,-1.66266 7.75284,-1.84052 4.84918,-0.15481 6.70368,0.0743 6.27078,0.77474 -0.33806,0.54701 -1.56879,0.86953 -2.73495,0.71671 -1.16616,-0.15282 -2.24009,0.12672 -2.38652,0.6212 -0.14643,0.49447 1.25163,1.02466 3.10679,1.17818 2.92646,0.24217 3.49072,-0.0304 4.26199,-2.05905 0.69752,-1.83458 1.22966,-2.1692 2.47081,-1.55366 1.3485,0.66879 5.76569,0.77938 12.14568,0.30411 1.34814,-0.10043 1.57334,-1.08232 1.57334,-6.86009 0,-3.89588 -0.3796,-6.74287 -0.89906,-6.74287 -0.49447,0 -0.89905,0.80914 -0.89905,1.7981 0,2.00477 -0.70636,2.10742 -12.91046,1.87615 -3.94473,-0.0747 -7.58331,0.2949 -8.23617,0.83673 -0.81132,0.67333 -1.348,0.68189 -1.75217,0.0279 -0.77768,-1.25831 -13.68021,-1.22737 -14.4602,0.0347 -0.43498,0.70381 -0.87763,0.70381 -1.58145,0 -0.53756,-0.53756 -2.51476,-0.97738 -4.39377,-0.97738 l -3.41639,0 0,4.94477 c 0,3.7084 0.32426,4.94478 1.29688,4.94478 0.88301,0 1.38511,-1.21937 1.57333,-3.82096 0.19349,-2.67418 0.68121,-3.82097 1.62504,-3.82097 0.94659,0 1.43167,1.15308 1.62734,3.86833 0.21601,2.99739 0.62085,3.83435 1.7981,3.71743 3.78067,-0.37547 6.53961,0.10571 5.96226,1.03989 -0.33438,0.54104 -1.57198,0.79943 -2.75021,0.57419 -1.40841,-0.26923 -2.14224,0.01 -2.14224,0.81439 0,1.92585 6.03499,1.58845 7.09746,-0.3968 z m -179.91518,-2.476 c 1.11998,-0.78447 1.99815,-0.98203 1.99815,-0.44953 0,0.52252 0.40457,0.95003 0.89905,0.95003 0.49448,0 0.89905,-1.575 0.89905,-3.50001 0,-2.37003 0.46158,-3.67714 1.42971,-4.04865 2.25707,-0.86612 3.06554,0.19025 3.06554,4.00552 0,1.94873 0.42572,3.54314 0.94604,3.54314 0.57638,0 0.83985,-1.84426 0.67428,-4.72001 l -0.27174,-4.72002 -3.82097,-0.12988 c -2.98912,-0.1016 -3.82691,0.19199 -3.8483,1.34858 -0.0243,1.31287 -0.12997,1.30224 -0.94373,-0.0949 -1.13927,-1.95602 -5.58364,-2.07643 -7.14623,-0.19362 -1.63165,1.96601 -1.27828,6.88918 0.59267,8.25726 2.05043,1.49931 3.09911,1.45226 5.52648,-0.24793 z m 46.70593,0.14588 c 0.26463,-0.26464 1.2288,-0.081 2.1426,0.40801 1.97854,1.05888 6.19359,0.18549 6.19359,-1.28336 0,-0.56927 -1.27635,-1.03113 -2.83634,-1.02634 -1.55999,0.005 -3.00971,-0.49703 -3.2216,-1.11513 -0.2611,-0.76164 0.65297,-1.12381 2.83635,-1.12381 2.47406,0 3.2184,-0.36507 3.20783,-1.57334 -0.031,-3.54393 -0.94227,-3.75921 -15.07798,-3.56214 -13.64307,0.1902 -13.67913,0.18537 -13.6785,-1.83216 3.4e-4,-1.11258 -0.40394,-2.02286 -0.89842,-2.02286 -0.51946,0 -0.89905,2.84699 -0.89905,6.74287 0,3.89589 0.37959,6.74288 0.89905,6.74288 0.49448,0 0.89905,-1.575 0.89905,-3.50001 0,-2.37003 0.46158,-3.67714 1.4297,-4.04865 2.24898,-0.86301 3.06555,0.18728 3.06555,3.94299 0,2.91682 0.32767,3.53164 2.02286,3.79562 2.85311,0.44431 13.33671,0.034 13.91531,-0.54457 z m 31.26669,-0.91695 c 2.09024,-2.09023 2.19146,-2.10498 2.73311,-0.39839 0.90364,2.84714 3.19615,1.54238 4.9641,-2.82529 l 1.63763,-4.04573 0.0503,4.27049 c 0.0682,5.79587 1.68722,5.43666 2.02611,-0.44952 l 0.27173,-4.72002 2.48754,4.72002 c 3.64646,6.91906 5.15439,6.32727 5.15439,-2.02287 0,-3.89588 -0.3796,-6.74287 -0.89905,-6.74287 -0.49448,0 -0.90798,2.124 -0.91889,4.72001 l -0.0199,4.72001 -2.75152,-4.72001 c -2.79785,-4.79955 -5.30023,-6.17904 -5.30023,-2.92191 0,0.98895 -0.52558,1.7981 -1.16796,1.7981 -0.64238,0 -1.72729,1.51714 -2.41091,3.37144 l -1.24294,3.37143 -1.30729,-3.37143 c -0.71902,-1.8543 -1.65697,-3.37144 -2.08435,-3.37144 -0.42737,0 -0.77705,-0.56358 -0.77705,-1.25239 0,-2.66291 -5.14041,-3.11611 -8.10606,-0.71467 -2.95656,2.39408 -1.72998,5.26627 2.76598,6.47691 1.94809,0.52456 3.54198,1.35543 3.54198,1.84637 0,1.52742 -2.8448,2.07371 -5.52688,1.06134 -2.24273,-0.84654 -2.56457,-0.76001 -2.56457,0.68946 0,1.5692 1.48988,2.24286 5.65992,2.55915 0.88781,0.0673 2.59098,-0.85435 3.78482,-2.04819 z m -60.69062,-0.97605 c 0,-1.76724 0.45687,-2.24763 2.13755,-2.24763 2.79955,0 4.35613,-1.98139 3.99601,-5.08656 -0.22412,-1.93249 -0.9399,-2.68347 -3.16113,-3.31661 -4.91259,-1.4003 -5.66958,-0.52217 -5.66958,6.57685 0,5.01981 0.27771,6.32157 1.34858,6.32157 0.83911,0 1.34857,-0.8491 1.34857,-2.24762 z m 84.51074,-0.44953 c 0,-2.39747 0.29968,-2.69715 2.69715,-2.69715 1.7981,0 2.69715,-0.44953 2.69715,-1.34858 0,-0.89905 -0.89905,-1.34857 -2.69715,-1.34857 -1.7981,0 -2.69715,-0.44953 -2.69715,-1.34858 0,-0.94186 0.949,-1.34857 3.14668,-1.34857 2.24696,0 3.14667,-0.39968 3.14667,-1.39784 0,-1.10668 -0.88948,-1.34076 -4.27049,-1.12381 l -4.27049,0.27402 -0.26415,6.51812 c -0.21846,5.39079 -0.0241,6.51811 1.12382,6.51811 0.94281,0 1.38796,-0.86503 1.38796,-2.69715 z m 13.48576,0.44953 c 0,-1.80398 0.44804,-2.24763 2.26987,-2.24763 1.59396,0 2.52435,0.66929 3.12443,2.24763 1.2276,3.22883 3.1871,2.77028 4.80229,-1.12382 l 1.3984,-3.37144 0.0463,3.37144 c 0.0326,2.37688 0.44415,3.37144 1.39491,3.37144 1.02497,0 1.35333,-1.13263 1.36841,-4.72001 l 0.0199,-4.72002 2.75152,4.72002 c 3.96835,6.80737 5.30025,6.29905 5.30025,-2.02287 0,-7.63841 -1.56059,-9.23611 -1.97587,-2.02286 l -0.27175,4.72001 -2.48754,-4.72001 c -2.52611,-4.79322 -4.74,-5.99612 -5.79131,-3.14668 -0.31927,0.86534 -0.87194,1.77563 -1.22813,2.02287 -0.3562,0.24724 -1.22893,1.86553 -1.93942,3.5962 l -1.29178,3.14667 -1.22869,-3.37143 c -1.27062,-3.48654 -4.19035,-4.9612 -3.11509,-1.57334 0.44508,1.4023 0.16156,1.7981 -1.28799,1.7981 -1.46584,0 -1.85868,-0.57006 -1.85868,-2.69715 0,-1.48344 -0.40458,-2.69715 -0.89906,-2.69715 -0.49447,0 -0.89905,1.21371 -0.89905,2.69715 0,2.27759 -0.34963,2.69715 -2.24762,2.69715 -1.2362,0 -2.24763,0.40457 -2.24763,0.89905 0,0.49448 1.01143,0.89905 2.24763,0.89905 1.7981,0 2.24762,0.44952 2.24762,2.24763 0,1.23619 0.40458,2.24762 0.89905,2.24762 0.49448,0 0.89906,-1.01143 0.89906,-2.24762 z m 26.97151,-0.44953 c 0,-2.39747 0.29968,-2.69715 2.69715,-2.69715 1.7981,0 2.69715,-0.44953 2.69715,-1.34858 0,-0.89905 -0.89905,-1.34857 -2.69715,-1.34857 -1.7981,0 -2.69715,-0.44953 -2.69715,-1.34858 0,-0.94186 0.949,-1.34857 3.14667,-1.34857 2.19768,0 3.14668,-0.40672 3.14668,-1.34858 0,-1.01892 -1.09884,-1.34857 -4.49525,-1.34857 l -4.49525,0 0,6.74287 c 0,5.39431 0.26971,6.74288 1.34857,6.74288 0.89905,0 1.34858,-0.89905 1.34858,-2.69715 z m 20.67815,1.7981 c 0,-0.49448 -1.61829,-0.89905 -3.5962,-0.89905 -3.23658,0 -3.5962,-0.22476 -3.5962,-2.24763 0,-2.02286 0.35962,-2.24762 3.5962,-2.24762 1.97791,0 3.5962,-0.40457 3.5962,-0.89905 0,-0.49448 -1.61829,-0.89905 -3.5962,-0.89905 -2.59725,0 -3.5962,-0.37461 -3.5962,-1.34858 0,-0.97397 0.99895,-1.34857 3.5962,-1.34857 2.59726,0 3.5962,-0.37461 3.5962,-1.34858 0,-1.01892 -1.09883,-1.34857 -4.49525,-1.34857 l -4.49525,0 0,6.74287 0,6.74288 4.49525,0 c 2.47239,0 4.49525,-0.40457 4.49525,-0.89905 z m -98.22125,-4.72001 c -0.20603,-0.6181 -1.52089,-1.12382 -2.92191,-1.12382 -1.40102,0 -2.71588,0.50572 -2.92192,1.12382 -0.25427,0.76283 0.68428,1.12381 2.92192,1.12381 2.23764,0 3.17619,-0.36098 2.92191,-1.12381 z m -73.49737,-6.51812 c 0,-0.74172 -0.60686,-1.34857 -1.34857,-1.34857 -0.74172,0 -1.34858,0.60685 -1.34858,1.34857 0,0.74172 0.60686,1.34858 1.34858,1.34858 0.74171,0 1.34857,-0.60686 1.34857,-1.34858 z"
       id="path5441"
       inkscape:connector-curvature="0"
       transform="matrix(0.8,0,0,-0.8,11.5,214.98405)" /></g></svg>