<?xml version="1.0" encoding="UTF-8" standalone="no"?>
<!-- Created with Inkscape (http://www.inkscape.org/) -->

<svg
   xmlns:dc="http://purl.org/dc/elements/1.1/"
   xmlns:cc="http://creativecommons.org/ns#"
   xmlns:rdf="http://www.w3.org/1999/02/22-rdf-syntax-ns#"
   xmlns:svg="http://www.w3.org/2000/svg"
   xmlns="http://www.w3.org/2000/svg"
   xmlns:sodipodi="http://sodipodi.sourceforge.net/DTD/sodipodi-0.dtd"
   xmlns:inkscape="http://www.inkscape.org/namespaces/inkscape"
   width="202.77534"
   height="50.094296"
   id="svg2"
   version="1.1"
   inkscape:version="0.48.4 r9939"
   sodipodi:docname="testbed.svg">
  <defs
     id="defs4">
    <clipPath
       id="clipPath3001"
       clipPathUnits="userSpaceOnUse">
      <path
         id="path3003"
         d="M 0,3 359,3 359,303 0,303 0,3 z"
         inkscape:connector-curvature="0" />
    </clipPath>
    <clipPath
       id="clipPath3209"
       clipPathUnits="userSpaceOnUse">
      <path
         id="path3211"
         d="m 0,1.79688 370,0 0,250 -370,0 0,-250 z"
         inkscape:connector-curvature="0" />
    </clipPath>
    <clipPath
       id="clipPath3209-2"
       clipPathUnits="userSpaceOnUse">
      <path
         inkscape:connector-curvature="0"
         id="path3211-4"
         d="m 0,1.79688 370,0 0,250 -370,0 0,-250 z" />
    </clipPath>
  </defs>
  <sodipodi:namedview
     id="base"
     pagecolor="#ffffff"
     bordercolor="#666666"
     borderopacity="1.0"
     inkscape:pageopacity="0.0"
     inkscape:pageshadow="2"
     inkscape:zoom="2.45"
     inkscape:cx="156.77288"
     inkscape:cy="12.720928"
     inkscape:document-units="px"
     inkscape:current-layer="layer1"
     showgrid="true"
     inkscape:snap-grids="true"
     showguides="false"
     inkscape:snap-global="false"
     fit-margin-top="0"
     fit-margin-left="0"
     fit-margin-right="0"
     fit-margin-bottom="0"
     inkscape:window-width="1366"
     inkscape:window-height="744"
     inkscape:window-x="0"
     inkscape:window-y="24"
     inkscape:window-maximized="1">
    <inkscape:grid
       type="xygrid"
       id="grid3300"
       empspacing="5"
       visible="true"
       enabled="true"
       snapvisiblegridlinesonly="true"
       originx="-21.786016px"
       originy="-957.91992px" />
  </sodipodi:namedview>
  <metadata
     id="metadata7">
    <rdf:RDF>
      <cc:Work
         rdf:about="">
        <dc:format>image/svg+xml</dc:format>
        <dc:type
           rdf:resource="http://purl.org/dc/dcmitype/StillImage" />
      </cc:Work>
    </rdf:RDF>
  </metadata>
  <g
     inkscape:label="Layer 1"
     inkscape:groupmode="layer"
     id="layer1"
     transform="translate(-21.786016,-44.347965)">
    <g
       transform="matrix(1.25,0,0,-1.25,23.493645,82.088211)"
       inkscape:label="ink_ext_XXXXXX"
       id="g2993">
      <g
         transform="scale(0.1,0.1)"
         id="g2995">
        <g
           id="g2997">
          <g
             clip-path="url(#clipPath3001)"
             id="g2999">
            <path
               id="path3005"
               style="fill:none;stroke:#000000;stroke-width:3.99993992;stroke-linecap:round;stroke-linejoin:round;stroke-miterlimit:4;stroke-opacity:1;stroke-dasharray:none"
               d="m 326.262,47.8906 c 4.058,4.8828 -18.164,11.5235 6.851,15.625 15.996,2.6367 64.399,31.0821 -49.121,32.5703"
               inkscape:connector-curvature="0" />
            <path
               id="path3007"
               style="fill:#036998;fill-opacity:1;fill-rule:nonzero;stroke:none"
               d="m 66.5586,56.2109 183.508,0 0,27.7148 -183.508,0 0,-27.7148 z"
               inkscape:connector-curvature="0" />
            <path
               id="path3009"
               style="fill:none;stroke:#ffffff;stroke-width:3.99993992;stroke-linecap:butt;stroke-linejoin:miter;stroke-miterlimit:4;stroke-opacity:1;stroke-dasharray:none"
               d="m 66.5586,56.2109 183.508,0 0,27.7148 -183.508,0 0,-27.7148 z"
               inkscape:connector-curvature="0" />
            <path
               id="path3011"
               style="fill:#036998;fill-opacity:1;fill-rule:nonzero;stroke:none"
               d="m 249.895,56.1133 0,27.8125 37.007,37.6952 0,-28.496 -37.007,-37.0117"
               inkscape:connector-curvature="0" />
            <path
               id="path3013"
               style="fill:none;stroke:#ffffff;stroke-width:3.99993992;stroke-linecap:butt;stroke-linejoin:miter;stroke-miterlimit:4;stroke-opacity:1;stroke-dasharray:none"
               d="m 249.895,56.1133 0,27.8125 37.007,37.6952 0,-28.496 -37.007,-37.0117 z"
               inkscape:connector-curvature="0" />
            <path
               id="path3015"
               style="fill:#036998;fill-opacity:1;fill-rule:nonzero;stroke:none"
               d="m 66.5586,51.2109 183.508,0 0,32.7148 -183.508,0 0,-32.7148 z"
               inkscape:connector-curvature="0" />
            <path
               id="path3017"
               style="fill:none;stroke:#ffffff;stroke-width:3.99993992;stroke-linecap:butt;stroke-linejoin:miter;stroke-miterlimit:4;stroke-opacity:1;stroke-dasharray:none"
               d="m 66.5586,51.2109 183.508,0 0,32.7148 -183.508,0 0,-32.7148 z"
               inkscape:connector-curvature="0" />
            <path
               id="path3019"
               style="fill:#036998;fill-opacity:1;fill-rule:nonzero;stroke:none"
               d="m 249.895,51.1133 0,32.8125 37.007,37.6952 0,-33.496 -37.007,-37.0117"
               inkscape:connector-curvature="0" />
            <path
               id="path3021"
               style="fill:none;stroke:#ffffff;stroke-width:3.99993992;stroke-linecap:butt;stroke-linejoin:miter;stroke-miterlimit:4;stroke-opacity:1;stroke-dasharray:none"
               d="m 249.895,51.1133 0,32.8125 37.007,37.6952 0,-33.496 -37.007,-37.0117 z"
               inkscape:connector-curvature="0" />
            <path
               id="path3023"
               style="fill:#036998;fill-opacity:1;fill-rule:nonzero;stroke:none"
               d="m 299.758,126.621 -25.942,-37.6952 -228.3707,0 36.7578,37.6952 217.5549,0"
               inkscape:connector-curvature="0" />
            <path
               id="path3025"
               style="fill:none;stroke:#ffffff;stroke-width:3.99993992;stroke-linecap:butt;stroke-linejoin:miter;stroke-miterlimit:4;stroke-opacity:1;stroke-dasharray:none"
               d="m 299.758,126.621 -25.942,-37.6952 -228.3707,0 36.7578,37.6952 217.5549,0 z"
               inkscape:connector-curvature="0" />
            <path
               id="path3027"
               style="fill:#036998;fill-opacity:1;fill-rule:nonzero;stroke:none"
               d="m 44.8984,76.2109 218.508,0 0,12.7148 -218.508,0 0,-12.7148 z"
               inkscape:connector-curvature="0" />
            <path
               id="path3029"
               style="fill:none;stroke:#ffffff;stroke-width:3.99993992;stroke-linecap:butt;stroke-linejoin:miter;stroke-miterlimit:4;stroke-opacity:1;stroke-dasharray:none"
               d="m 44.8984,76.2109 218.508,0 0,12.7148 -218.508,0 0,-12.7148 z"
               inkscape:connector-curvature="0" />
            <path
               id="path3031"
               style="fill:#036998;fill-opacity:1;fill-rule:nonzero;stroke:none"
               d="m 263.215,76.1133 0,12.8125 37.027,37.6952 0,-13.496 -37.027,-37.0117"
               inkscape:connector-curvature="0" />
            <path
               id="path3033"
               style="fill:none;stroke:#ffffff;stroke-width:3.99993992;stroke-linecap:butt;stroke-linejoin:miter;stroke-miterlimit:4;stroke-opacity:1;stroke-dasharray:none"
               d="m 263.215,76.1133 0,12.8125 37.027,37.6952 0,-13.496 -37.027,-37.0117 z"
               inkscape:connector-curvature="0" />
            <path
               id="path3035"
               style="fill:#036998;fill-opacity:1;fill-rule:nonzero;stroke:none"
               d="m 299.758,126.621 -25.942,-37.6952 -228.3707,0 36.7578,37.6952 217.5549,0"
               inkscape:connector-curvature="0" />
            <path
               id="path3037"
               style="fill:none;stroke:#ffffff;stroke-width:3.99993992;stroke-linecap:butt;stroke-linejoin:miter;stroke-miterlimit:4;stroke-opacity:1;stroke-dasharray:none"
               d="m 299.758,126.621 -25.942,-37.6952 -228.3707,0 36.7578,37.6952 217.5549,0 z"
               inkscape:connector-curvature="0" />
            <path
               id="path3039"
               style="fill:#036998;fill-opacity:1;fill-rule:nonzero;stroke:none"
               d="m 44.8984,76.2109 218.508,0 0,12.7148 -218.508,0 0,-12.7148 z"
               inkscape:connector-curvature="0" />
            <path
               id="path3041"
               style="fill:none;stroke:#ffffff;stroke-width:3.99993992;stroke-linecap:butt;stroke-linejoin:miter;stroke-miterlimit:4;stroke-opacity:1;stroke-dasharray:none"
               d="m 44.8984,76.2109 218.508,0 0,12.7148 -218.508,0 0,-12.7148 z"
               inkscape:connector-curvature="0" />
            <path
               id="path3043"
               style="fill:#036998;fill-opacity:1;fill-rule:nonzero;stroke:none"
               d="m 263.215,76.1133 0,12.8125 37.027,37.6952 0,-13.496 -37.027,-37.0117"
               inkscape:connector-curvature="0" />
            <path
               id="path3045"
               style="fill:none;stroke:#ffffff;stroke-width:3.99993992;stroke-linecap:butt;stroke-linejoin:miter;stroke-miterlimit:4;stroke-opacity:1;stroke-dasharray:none"
               d="m 263.215,76.1133 0,12.8125 37.027,37.6952 0,-13.496 -37.027,-37.0117 z"
               inkscape:connector-curvature="0" />
            <path
               id="path3047"
               style="fill:#036998;fill-opacity:1;fill-rule:nonzero;stroke:none"
               d="m 300.945,299.922 -197.336,0 -57.7535,-13.586 228.5855,0 26.504,13.586"
               inkscape:connector-curvature="0" />
            <path
               id="path3049"
               style="fill:none;stroke:#ffffff;stroke-width:3.99993992;stroke-linecap:butt;stroke-linejoin:miter;stroke-miterlimit:4;stroke-opacity:1;stroke-dasharray:none"
               d="m 300.945,299.922 -197.336,0 -57.7535,-13.586 228.5855,0 26.504,13.586 z"
               inkscape:connector-curvature="0" />
            <path
               id="path3051"
               style="fill:#036998;fill-opacity:1;fill-rule:nonzero;stroke:none"
               d="m 264.563,104.922 -10.098,8.34 -185.4064,0 9.7852,-8.34 185.7192,0"
               inkscape:connector-curvature="0" />
            <path
               id="path3053"
               style="fill:none;stroke:#ffffff;stroke-width:3.99993992;stroke-linecap:butt;stroke-linejoin:miter;stroke-miterlimit:4;stroke-opacity:1;stroke-dasharray:none"
               d="m 264.563,104.922 -10.098,8.34 -185.4064,0 9.7852,-8.34 185.7192,0 z"
               inkscape:connector-curvature="0" />
            <path
               id="path3055"
               style="fill:#036998;fill-opacity:1;fill-rule:nonzero;stroke:none"
               d="m 265.691,106.379 -12.769,8.543 47.266,25 -30.43,-30.098 -4.067,-3.445"
               inkscape:connector-curvature="0" />
            <path
               id="path3057"
               style="fill:none;stroke:#ffffff;stroke-width:3.99993992;stroke-linecap:butt;stroke-linejoin:miter;stroke-miterlimit:4;stroke-opacity:1;stroke-dasharray:none"
               d="m 265.691,106.379 -12.769,8.543 47.266,25 -30.43,-30.098 -4.067,-3.445 z"
               inkscape:connector-curvature="0" />
            <path
               id="path3059"
               style="fill:#036998;fill-opacity:1;fill-rule:nonzero;stroke:none"
               d="m 274.441,286.336 0,-170.469 26.504,24.629 0,159.426 -26.504,-13.586"
               inkscape:connector-curvature="0" />
            <path
               id="path3061"
               style="fill:none;stroke:#ffffff;stroke-width:3.99993992;stroke-linecap:butt;stroke-linejoin:miter;stroke-miterlimit:4;stroke-opacity:1;stroke-dasharray:none"
               d="m 274.441,286.336 0,-170.469 26.504,24.629 0,159.426 -26.504,-13.586 z"
               inkscape:connector-curvature="0" />
            <path
               id="path3063"
               style="fill:#036998;fill-opacity:1;fill-rule:nonzero;stroke:none"
               d="m 45.8555,113.992 228.586,0 0,172.344 -228.586,0 0,-172.344 z"
               inkscape:connector-curvature="0" />
            <path
               id="path3065"
               style="fill:none;stroke:#ffffff;stroke-width:3.99993992;stroke-linecap:butt;stroke-linejoin:miter;stroke-miterlimit:4;stroke-opacity:1;stroke-dasharray:none"
               d="m 45.8555,113.992 228.586,0 0,172.344 -228.586,0 0,-172.344 z"
               inkscape:connector-curvature="0" />
            <path
               id="path3067"
               style="fill:#036998;fill-opacity:1;fill-rule:nonzero;stroke:none"
               d="m 255.227,6.48438 0,13.26172 28.613,39.5586 0,-24.2149 -28.613,-28.60542"
               inkscape:connector-curvature="0" />
            <path
               id="path3069"
               style="fill:none;stroke:#ffffff;stroke-width:3.99993992;stroke-linecap:butt;stroke-linejoin:miter;stroke-miterlimit:4;stroke-opacity:1;stroke-dasharray:none"
               d="m 255.227,6.48438 0,13.26172 28.613,39.5586 0,-24.2149 -28.613,-28.60542 z"
               inkscape:connector-curvature="0" />
            <path
               id="path3071"
               style="fill:#036998;fill-opacity:1;fill-rule:nonzero;stroke:none"
               d="m 3.10156,6.48438 252.125,0 0,13.0664 -252.125,0 0,-13.0664 z"
               inkscape:connector-curvature="0" />
            <path
               id="path3073"
               style="fill:none;stroke:#ffffff;stroke-width:3.99993992;stroke-linecap:butt;stroke-linejoin:miter;stroke-miterlimit:4;stroke-opacity:1;stroke-dasharray:none"
               d="m 3.10156,6.48438 252.125,0 0,13.0664 -252.125,0 0,-13.0664 z"
               inkscape:connector-curvature="0" />
            <path
               id="path3075"
               style="fill:#036998;fill-opacity:1;fill-rule:nonzero;stroke:none"
               d="m 326.926,16.9414 16.734,33.4492 -38.222,0 -16.715,-33.4492 38.203,0"
               inkscape:connector-curvature="0" />
            <path
               id="path3077"
               style="fill:none;stroke:#ffffff;stroke-width:3.99993992;stroke-linecap:butt;stroke-linejoin:miter;stroke-miterlimit:4;stroke-opacity:1;stroke-dasharray:none"
               d="m 326.926,16.9414 16.734,33.4492 -38.222,0 -16.715,-33.4492 38.203,0 z"
               inkscape:connector-curvature="0" />
            <path
               id="path3079"
               style="fill:#036998;fill-opacity:1;fill-rule:nonzero;stroke:none"
               d="m 288.723,6.19141 38.2031,0 0,10.75 -38.2031,0 0,-10.75 z"
               inkscape:connector-curvature="0" />
            <path
               id="path3081"
               style="fill:none;stroke:#ffffff;stroke-width:3.99993992;stroke-linecap:butt;stroke-linejoin:miter;stroke-miterlimit:4;stroke-opacity:1;stroke-dasharray:none"
               d="m 288.723,6.19141 38.2031,0 0,10.75 -38.2031,0 0,-10.75 z"
               inkscape:connector-curvature="0" />
            <path
               id="path3083"
               style="fill:#036998;fill-opacity:1;fill-rule:nonzero;stroke:none"
               d="M 326.633,5.89844 326.73,16.9414 343.445,50.3906 343.352,27.4023 326.633,5.89844"
               inkscape:connector-curvature="0" />
            <path
               id="path3085"
               style="fill:none;stroke:#ffffff;stroke-width:3.99993992;stroke-linecap:butt;stroke-linejoin:miter;stroke-miterlimit:4;stroke-opacity:1;stroke-dasharray:none"
               d="M 326.633,5.89844 326.73,16.9414 343.445,50.3906 343.352,27.4023 326.633,5.89844 z"
               inkscape:connector-curvature="0" />
            <path
               id="path3087"
               style="fill:#036998;fill-opacity:1;fill-rule:nonzero;stroke:none"
               d="m 255.227,19.5508 -251.32466,0 28.60156,39.7539 251.3361,0 -28.613,-39.7539"
               inkscape:connector-curvature="0" />
            <path
               id="path3089"
               style="fill:none;stroke:#ffffff;stroke-width:3.99993992;stroke-linecap:butt;stroke-linejoin:miter;stroke-miterlimit:4;stroke-opacity:1;stroke-dasharray:none"
               d="m 255.227,19.5508 -251.32466,0 28.60156,39.7539 251.3361,0 -28.613,-39.7539 z"
               inkscape:connector-curvature="0" />
            <path
               id="path3091"
               style="fill:#036998;fill-opacity:1;fill-rule:nonzero;stroke:none"
               d="m 79.0586,268.34 160.5434,0 c 10.449,0 18.906,-8.469 18.906,-18.918 l 0,-101.414 c 0,-10.449 -8.457,-18.926 -18.906,-18.926 l -160.5434,0 c -10.4492,0 -18.918,8.477 -18.918,18.926 l 0,101.414 c 0,10.449 8.4688,18.918 18.918,18.918"
               inkscape:connector-curvature="0" />
            <path
               id="path3093"
               style="fill:none;stroke:#ffffff;stroke-width:3.99993992;stroke-linecap:butt;stroke-linejoin:miter;stroke-miterlimit:4;stroke-opacity:1;stroke-dasharray:none"
               d="m 79.0586,268.34 160.5434,0 c 10.449,0 18.906,-8.469 18.906,-18.918 l 0,-101.414 c 0,-10.449 -8.457,-18.926 -18.906,-18.926 l -160.5434,0 c -10.4492,0 -18.918,8.477 -18.918,18.926 l 0,101.414 c 0,10.449 8.4688,18.918 18.918,18.918 z"
               inkscape:connector-curvature="0" />
          </g>
        </g>
      </g>
    </g>
    <g
       transform="matrix(1.25,0,0,-1.25,185.07509,80.07771)"
       inkscape:label="ink_ext_XXXXXX"
       id="g3154">
      <g
         transform="scale(0.1,0.1)"
         id="g3156">
        <path
           id="path3158"
           style="fill:#087bbb;fill-opacity:1;fill-rule:nonzero;stroke:none"
           d="m 4.82422,4.82813 153.875,0 0,221.387 -153.875,0 0,-221.387 z"
           inkscape:connector-curvature="0" />
        <path
           id="path3160"
           style="fill:none;stroke:#ffffff;stroke-width:4;stroke-linecap:butt;stroke-linejoin:miter;stroke-miterlimit:4;stroke-opacity:1;stroke-dasharray:none"
           d="m 158.699,226.215 -153.87478,0 0,-221.38687 153.87478,0"
           inkscape:connector-curvature="0" />
        <path
           id="path3162"
           style="fill:#087bbb;fill-opacity:1;fill-rule:nonzero;stroke:none"
           d="m 158.699,4.82813 49.153,49.14067 0,221.3862 -153.8872,0 -49.14058,-49.14 153.87478,0 0,-221.38687"
           inkscape:connector-curvature="0" />
        <path
           id="path3164"
           style="fill:none;stroke:#ffffff;stroke-width:4;stroke-linecap:butt;stroke-linejoin:miter;stroke-miterlimit:4;stroke-opacity:1;stroke-dasharray:none"
           d="m 158.699,4.82813 49.153,49.14067 0,221.3862 -153.8872,0 -49.14058,-49.14 153.87478,0 0,-221.38687 z"
           inkscape:connector-curvature="0" />
        <path
           id="path3166"
           style="fill:#087bbb;fill-opacity:1;fill-rule:nonzero;stroke:none"
           d="m 158.699,226.215 49.153,49.14"
           inkscape:connector-curvature="0" />
        <path
           id="path3168"
           style="fill:none;stroke:#ffffff;stroke-width:4;stroke-linecap:butt;stroke-linejoin:miter;stroke-miterlimit:4;stroke-opacity:1;stroke-dasharray:none"
           d="m 158.699,226.215 49.153,49.14"
           inkscape:connector-curvature="0" />
        <path
           id="path3170"
           style="fill:none;stroke:#ffffff;stroke-width:4;stroke-linecap:butt;stroke-linejoin:miter;stroke-miterlimit:4;stroke-opacity:1;stroke-dasharray:none"
           d="m 7.31641,165.254 149.99959,0"
           inkscape:connector-curvature="0" />
        <path
           id="path3172"
           style="fill:none;stroke:#ffffff;stroke-width:4;stroke-linecap:butt;stroke-linejoin:miter;stroke-miterlimit:4;stroke-opacity:1;stroke-dasharray:none"
           d="m 7.31641,94.9102 149.99959,0"
           inkscape:connector-curvature="0" />
        <path
           id="path3174"
           style="fill:none;stroke:#ffffff;stroke-width:4;stroke-linecap:butt;stroke-linejoin:miter;stroke-miterlimit:4;stroke-opacity:1;stroke-dasharray:none"
           d="m 57.9961,123.328 43.7499,0"
           inkscape:connector-curvature="0" />
        <path
           id="path3176"
           style="fill:none;stroke:#ffffff;stroke-width:4;stroke-linecap:butt;stroke-linejoin:miter;stroke-miterlimit:4;stroke-opacity:1;stroke-dasharray:none"
           d="m 57.9961,136.664 43.7499,0"
           inkscape:connector-curvature="0" />
        <path
           id="path3178"
           style="fill:none;stroke:#ffffff;stroke-width:4;stroke-linecap:butt;stroke-linejoin:miter;stroke-miterlimit:4;stroke-opacity:1;stroke-dasharray:none"
           d="m 40.4961,108.328 77.5,0 0,42.043 -77.5,0 0,-42.043 z"
           inkscape:connector-curvature="0" />
      </g>
    </g>
    <g
       transform="matrix(1.25,0,0,-1.25,101.77296,80.048534)"
       inkscape:label="ink_ext_XXXXXX"
       id="g3201">
      <g
         transform="scale(0.1,0.1)"
         id="g3203">
        <g
           id="g3205">
          <g
             clip-path="url(#clipPath3209)"
             id="g3207">
            <path
               id="path3213"
               style="fill:#026c9b;fill-opacity:1;fill-rule:nonzero;stroke:none"
               d="m 369.855,178.281 c 0,-39.504 -82.343,-71.523 -183.925,-71.523 C 84.3477,106.758 2,138.777 2,178.281 L 2,73.5156 c 0,-39.5 82.3477,-71.52341 183.93,-71.52341 101.582,0 183.925,32.02341 183.925,71.52341 l 0,104.7654"
               inkscape:connector-curvature="0" />
            <path
               id="path3215"
               style="fill:none;stroke:#ffffff;stroke-width:4;stroke-linecap:butt;stroke-linejoin:miter;stroke-miterlimit:4;stroke-opacity:1;stroke-dasharray:none"
               d="m 369.855,178.281 c 0,-39.504 -82.343,-71.523 -183.925,-71.523 C 84.3477,106.758 2,138.777 2,178.281 L 2,73.5156 c 0,-39.5 82.3477,-71.52341 183.93,-71.52341 101.582,0 183.925,32.02341 183.925,71.52341 l 0,104.7654 z"
               inkscape:connector-curvature="0" />
            <path
               id="path3217"
               style="fill:#026c9b;fill-opacity:1;fill-rule:nonzero;stroke:none"
               d="m 185.93,106.758 c 101.582,0 183.925,32.019 183.925,71.523 0,39.512 -82.343,71.524 -183.925,71.524 C 84.3477,249.805 2,217.793 2,178.281 2,138.777 84.3477,106.758 185.93,106.758"
               inkscape:connector-curvature="0" />
            <path
               id="path3219"
               style="fill:none;stroke:#ffffff;stroke-width:4;stroke-linecap:butt;stroke-linejoin:miter;stroke-miterlimit:4;stroke-opacity:1;stroke-dasharray:none"
               d="m 185.93,106.758 c 101.582,0 183.925,32.019 183.925,71.523 0,39.512 -82.343,71.524 -183.925,71.524 C 84.3477,249.805 2,217.793 2,178.281 2,138.777 84.3477,106.758 185.93,106.758 z"
               inkscape:connector-curvature="0" />
            <path
               id="path3221"
               style="fill:#ffffff;fill-opacity:1;fill-rule:nonzero;stroke:none"
               d="m 143.926,206.25 15.183,-22.781 -57.421,-13.274 12.55,10.45 -88.7497,15.168 22.2656,16.687 85.6371,-14.5 10.535,8.25"
               inkscape:connector-curvature="0" />
            <path
               id="path3223"
               style="fill:#ffffff;fill-opacity:1;fill-rule:nonzero;stroke:none"
               d="m 224.727,151.008 -10.364,23.484 51.797,10.352 -8.98,-8.047 86.328,-14.746 -20.715,-16.571 -85.813,16.114 -12.253,-10.586"
               inkscape:connector-curvature="0" />
            <path
               id="path3225"
               style="fill:#ffffff;fill-opacity:1;fill-rule:nonzero;stroke:none"
               d="m 196.406,218.691 58.02,15.879 0.679,-24.863 -14.5,2.766 -28.308,-23.489 -27.024,3.946 29.231,22.968 -18.098,2.793"
               inkscape:connector-curvature="0" />
            <path
               id="path3227"
               style="fill:#ffffff;fill-opacity:1;fill-rule:nonzero;stroke:none"
               d="m 171.543,129.59 -55.242,-10.352 -2.071,25.547 15.875,-3.445 30.415,25.965 26.914,-4.551 -32.461,-28.32 16.57,-4.844"
               inkscape:connector-curvature="0" />
          </g>
        </g>
      </g>
    </g>
    <path
       style="fill:none;stroke:#000000;stroke-width:1px;stroke-linecap:butt;stroke-linejoin:miter;stroke-opacity:1"
       d="m 60.408163,60.933611 42.040817,0 0,1.22449"
       id="path3302"
       inkscape:connector-curvature="0" />
    <path
       style="fill:none;stroke:#000000;stroke-width:1.17233527px;stroke-linecap:butt;stroke-linejoin:miter;stroke-opacity:1"
       d="m 147.53413,60.117285 37.58481,0"
       id="path3304"
       inkscape:connector-curvature="0" />
    <rect
       style="fill:#ffffff;fill-rule:evenodd;stroke:#000000;stroke-width:1px;stroke-linecap:butt;stroke-linejoin:miter;stroke-opacity:1"
       id="rect3306"
       width="27.755102"
       height="13.877551"
       x="111.02041"
       y="67.464226" />
    <text
       xml:space="preserve"
       style="font-size:10px;font-style:normal;font-weight:normal;line-height:125%;letter-spacing:0px;word-spacing:0px;fill:#000000;fill-opacity:1;stroke:none;font-family:Sans"
       x="111.83673"
       y="78.076469"
       id="text3312"
       sodipodi:linespacing="125%"><tspan
         sodipodi:role="line"
         id="tspan3314"
         x="111.83673"
         y="78.076469"
         style="font-size:10px">SvNF</tspan></text>
    <text
       xml:space="preserve"
       style="font-size:40px;font-style:normal;font-weight:normal;line-height:125%;letter-spacing:0px;word-spacing:0px;fill:#000000;fill-opacity:1;stroke:none;font-family:Sans"
       x="95.510208"
       y="91.954018"
       id="text3316"
       sodipodi:linespacing="125%"><tspan
         sodipodi:role="line"
         id="tspan3318"
         x="95.510208"
         y="91.954018"
         style="font-size:10px">Modular GW</tspan></text>
    <text
       xml:space="preserve"
       style="font-size:40px;font-style:normal;font-weight:normal;line-height:125%;letter-spacing:0px;word-spacing:0px;fill:#000000;fill-opacity:1;stroke:none;font-family:Sans"
       x="21.224493"
       y="92.362183"
       id="text3320"
       sodipodi:linespacing="125%"><tspan
         sodipodi:role="line"
         id="tspan3322"
         x="21.224493"
         y="92.362183"
         style="font-size:10px">Operator</tspan></text>
    <text
       xml:space="preserve"
       style="font-size:40px;font-style:normal;font-weight:normal;line-height:125%;letter-spacing:0px;word-spacing:0px;fill:#000000;fill-opacity:1;stroke:none;font-family:Sans"
       x="171.83675"
       y="91.954018"
       id="text3324"
       sodipodi:linespacing="125%"><tspan
         sodipodi:role="line"
         id="tspan3326"
         x="171.83675"
         y="91.954018"
         style="font-size:10px">File Server</tspan></text>
  </g>
</svg>
